<?xml version="1.0" encoding="UTF-8" standalone="no"?>
<svg
   id="Flag_of_Iran_1964"
   data-name="Flag of Iran 1964"
   viewBox="0 0 600.01 600.01"
   version="1.1"
   xml:space="preserve"
   sodipodi:docname="Lion and Sun flag (circle).svg"
   inkscape:version="1.4.2 (f4327f4, 2025-05-13)"
   width="24"
   height="24"
   xmlns:inkscape="http://www.inkscape.org/namespaces/inkscape"
   xmlns:sodipodi="http://sodipodi.sourceforge.net/DTD/sodipodi-0.dtd"
   xmlns="http://www.w3.org/2000/svg"
   xmlns:svg="http://www.w3.org/2000/svg"><sodipodi:namedview
     id="namedview1"
     pagecolor="#ffffff"
     bordercolor="#000000"
     borderopacity="0.25"
     inkscape:showpageshadow="2"
     inkscape:pageopacity="0.0"
     inkscape:pagecheckerboard="0"
     inkscape:deskcolor="#d1d1d1"
     inkscape:zoom="0.70710678"
     inkscape:cx="350.01786"
     inkscape:cy="374.05949"
     inkscape:window-width="1920"
     inkscape:window-height="1009"
     inkscape:window-x="-8"
     inkscape:window-y="-8"
     inkscape:window-maximized="1"
     inkscape:current-layer="Flag_of_Iran_1964" /><defs
     id="defs1"><style
       id="style1">
      .cls-1 {
        fill: #fff;
      }

      .cls-2 {
        fill: #ffbb26;
      }

      .cls-3 {
        fill: #da0000;
      }

      .cls-4 {
        fill: #239f40;
      }
    </style><clipPath
       clipPathUnits="userSpaceOnUse"
       id="clipPath15"><ellipse
         style="fill:#000000;fill-opacity:1;stroke-width:1.69954;stroke-linecap:round"
         id="ellipse15"
         cx="140.14278"
         cy="122.60024"
         rx="291.85861"
         ry="291.84796" /></clipPath><clipPath
       clipPathUnits="userSpaceOnUse"
       id="clipPath16"><ellipse
         style="fill:#000000;fill-opacity:1;stroke-width:1.747;stroke-linecap:round"
         id="ellipse16"
         cx="300.005"
         cy="300"
         rx="300.005"
         ry="300" /></clipPath><clipPath
       clipPathUnits="userSpaceOnUse"
       id="clipPath17"><ellipse
         style="fill:#000000;fill-opacity:1;stroke-width:1.747;stroke-linecap:round"
         id="ellipse17"
         cx="300.005"
         cy="300"
         rx="300.005"
         ry="300" /></clipPath><clipPath
       clipPathUnits="userSpaceOnUse"
       id="clipPath18"><ellipse
         style="fill:#000000;fill-opacity:1;stroke-width:1.747;stroke-linecap:round"
         id="ellipse18"
         cx="300.005"
         cy="300"
         rx="300.005"
         ry="300" /></clipPath></defs><rect
     class="cls-4"
     width="600.01001"
     height="600.01001"
     id="rect1"
     style="fill:#319b42;fill-opacity:1;stroke-width:0.755929"
     x="0"
     y="0"
     clip-path="url(#clipPath18)" /><rect
     class="cls-1"
     y="200"
     width="600.01001"
     height="400"
     id="rect2"
     x="0"
     style="stroke-width:0.755929"
     clip-path="url(#clipPath17)" /><rect
     class="cls-3"
     y="400"
     width="600.01001"
     height="200"
     id="rect3"
     style="fill:#da291c;fill-opacity:1;stroke-width:0.755929"
     x="0"
     clip-path="url(#clipPath16)" /><g
     fill="#ffbb26"
     stroke="#000000"
     stroke-width="1.7"
     id="g33"
     transform="matrix(1.0279121,0,0,1.0279325,155.95055,173.97523)"
     style="stroke-width:1.69954;stroke-dasharray:none"
     clip-path="url(#clipPath15)"><path
       d="m 161.07119,117.31343 1.58064,-86.247538 -7.64012,-0.0299 1.47133,86.277388 z"
       id="path1"
       style="fill:#ffb81c;fill-opacity:1;stroke-width:1.69954;stroke-dasharray:none"
       sodipodi:nodetypes="ccccc" /><path
       d="m 168.96801,51.483322 -12.4375,65.363288 4.49219,0.93359 14.79101,-65.103518 z"
       id="path2"
       style="fill:#ffb81c;fill-opacity:1;stroke-width:1.69954;stroke-dasharray:none"
       sodipodi:nodetypes="ccccc" /><path
       d="m 160.88092,118.22819 35.84067,-78.463898 -6.99455,-3.07387 -33.05373,79.708248 z"
       id="path3"
       style="fill:#ffb81c;fill-opacity:1;stroke-width:1.69954;stroke-dasharray:none"
       sodipodi:nodetypes="ccccc" /><path
       d="m 195.218,59.767 -38.314,56.22218 3.74565,2.64844 L 200.958,63.786 Z"
       id="path4"
       style="fill:#ffb81c;fill-opacity:1;stroke-width:1.69954;stroke-dasharray:none"
       sodipodi:nodetypes="ccccc" /><path
       d="m 160.34167,118.99121 64.15545,-57.664678 -5.18872,-5.60799 -62.09584,59.917108 z"
       id="path5"
       style="fill:#ffb81c;fill-opacity:1;stroke-width:1.69954;stroke-dasharray:none"
       sodipodi:nodetypes="ccccc" /><path
       d="m 214.97919,79.172522 -57.39204,36.179948 2.38086,3.92187 58.61313,-34.113348 z"
       id="path6"
       style="fill:#ffb81c;fill-opacity:1;stroke-width:1.69954;stroke-dasharray:none"
       sodipodi:nodetypes="ccccc" /><path
       d="m 159.54289,119.47592 84.16991,-28.081338 -2.55101,-7.29428 -83.15045,31.050638 z"
       id="path7"
       style="fill:#ffb81c;fill-opacity:1;stroke-width:1.69954;stroke-dasharray:none"
       sodipodi:nodetypes="ccccc" /><path
       d="m 230.23559,104.02434 -71.76758,11.01563 0.61914,4.54687 72.28516,-8.49219 z"
       id="path8"
       style="fill:#ffb81c;fill-opacity:1;stroke-width:1.69954;stroke-dasharray:none"
       sodipodi:nodetypes="ccccc" /><path
       d="M 148.66527,51.450122 141.816,52.624 l 14.715,65.1562 4.492,-0.9332 z"
       id="path9"
       style="fill:#ffb81c;fill-opacity:1;stroke-width:1.69954;stroke-dasharray:none"
       sodipodi:nodetypes="ccccc" /><path
       d="m 160.88092,116.39867 -32.94158,-79.724458 -7.01836,3.01912 35.75233,78.534858 z"
       id="path10"
       style="fill:#ffb81c;fill-opacity:1;stroke-width:1.69954;stroke-dasharray:none"
       sodipodi:nodetypes="ccccc" /><path
       d="m 122.38207,59.677 -5.67607,4.109 40.19756,54.85162 3.74609,-2.64844 z"
       id="path11"
       style="fill:#ffb81c;fill-opacity:1;stroke-width:1.69954;stroke-dasharray:none"
       sodipodi:nodetypes="ccccc" /><path
       d="m 160.34167,115.63565 -39.58897,-38.297348 -1.80196,7.17399 38.26182,34.478918 z"
       id="path12"
       style="fill:#ffb81c;fill-opacity:1;stroke-width:1.69954;stroke-dasharray:none" /><path
       d="m 158.73183,84.465842 c -19.75592,0 -36.01168,14.5997 -36.01168,32.804528 0,18.20485 16.24074,32.89065 36.01168,32.89065 19.77084,0 36.10225,-14.67088 36.10225,-32.89065 0,-18.219778 -16.34644,-32.804528 -36.10225,-32.804528 z"
       id="path13"
       style="fill:#ffb81c;fill-opacity:1;stroke-width:1.69954;stroke-dasharray:none"
       sodipodi:nodetypes="sssss" /><path
       d="M 27.075629,114.49219 27.061,144.007 H 40.9 l -8.3e-5,-29.51481 C 39.957274,86.354592 45.101834,74.447442 49.610141,66.720468 63.625887,42.698305 91.338082,36.173328 108.70899,35.263672 91.645726,26.687202 55.386276,29.102931 36.730609,62.059781 c -9.624376,15.850251 -9.7059,34.456791 -9.65498,52.432409 z"
       id="path14"
       sodipodi:nodetypes="ccccsccc"
       style="fill:#ffb81c;fill-opacity:1;stroke-width:1.69954;stroke-dasharray:none" /><path
       fill="#000000"
       stroke="none"
       d="M 72.746094,39.181641 C 52.071621,44.62306 40.442026,63.938268 36.816636,76.634762 c -2.503551,8.767696 -4.097621,17.91971 -3.769301,37.857428 h 1.990235 c -0.302221,-12.393 -0.22933,-25.585078 3.714613,-37.796878 4.924774,-15.24879 14.78439,-28.566211 33.993911,-37.513671 z"
       id="path16"
       sodipodi:nodetypes="csccsc"
       style="stroke-width:1.69954;stroke-dasharray:none" /><path
       d="m 14.668501,111.52396 h 9.21656 l 10.102712,-2.86003 9.842667,2.86003 h 9.216825 l 4.355387,2.96787 -4.355387,2.96787 H 43.83044 l -9.842667,2.86003 -10.102447,-2.86003 h -9.216825 l -4.355666,-2.96787 z"
       id="path17"
       style="fill:#ffb81c;fill-opacity:1;stroke-width:1.69954;stroke-dasharray:none"
       sodipodi:nodetypes="ccccccccccccc" /><path
       d="M 29.110101,219.03289 H 251.1651 V 206.62634 H 29.110101 Z"
       id="path18"
       style="fill:#ffb81c;fill-opacity:1;stroke-width:1.69954;stroke-dasharray:none"
       sodipodi:nodetypes="ccccc" /><path
       fill="#000000"
       stroke="none"
       d="m 33.925146,206.62537 c 0.392351,2.31761 0.842139,5.73461 4.12017,6.20471 -0.841754,-0.96341 -1.58044,-3.91629 -1.839961,-6.20471 z m 6.724151,0 c 0.392352,2.31761 0.84214,5.73461 4.120171,6.20471 -0.841754,-0.96341 -1.580365,-3.91629 -1.839962,-6.20471 z m 6.724151,0 c 0.392288,2.31761 0.844114,5.73461 4.122146,6.20471 -0.841755,-0.96341 -1.58234,-3.91629 -1.841936,-6.20471 z m 6.726127,0 c 0.392287,2.31761 0.842138,5.73461 4.120169,6.20471 -0.841754,-0.96341 -1.582337,-3.91629 -1.841935,-6.20471 z m 6.72415,0 c 0.392289,2.31761 0.842238,5.73461 4.120172,6.20471 -0.841658,-0.96341 -1.58234,-3.91629 -1.841936,-6.20471 z m 6.724151,0 c 0.392369,2.31761 0.842238,5.73461 4.120173,6.20471 -0.841659,-0.96341 -1.58234,-3.91629 -1.841937,-6.20471 z m 6.724153,0 c 0.392367,2.31761 0.842236,5.73461 4.120171,6.20471 -0.841658,-0.96341 -1.580365,-3.91629 -1.839963,-6.20471 z m 6.724151,0 c 0.392367,2.31761 0.842237,5.73461 4.120171,6.20471 -0.841658,-0.96341 -1.580365,-3.91629 -1.839962,-6.20471 z m 6.72415,0 c 0.392354,2.31761 0.84214,5.73461 4.120173,6.20471 -0.841659,-0.96341 -1.580428,-3.91629 -1.839959,-6.20471 z m 6.724151,0 c 0.392349,2.31761 0.842142,5.73461 4.120172,6.20471 -0.841667,-0.96341 -1.580424,-3.91629 -1.839962,-6.20471 z m 6.726129,0 c 0.39235,2.31761 0.84214,5.73461 4.12018,6.20471 -0.84167,-0.96341 -1.58242,-3.91629 -1.84195,-6.20471 z m 6.72415,0 c 0.39234,2.31761 0.84214,5.73461 4.12017,6.20471 -0.84175,-0.96341 -1.58233,-3.91629 -1.84194,-6.20471 z m 6.72415,0 c 0.39236,2.31761 0.84214,5.73461 4.12018,6.20471 -0.84176,-0.96341 -1.58234,-3.91629 -1.84194,-6.20471 z m 6.72415,0 c 0.39229,2.31761 0.84215,5.73461 4.12017,6.20471 -0.84176,-0.96341 -1.58233,-3.91629 -1.84192,-6.20471 z m 6.72415,0 c 0.39229,2.31761 0.84215,5.73461 4.12018,6.20471 -0.84174,-0.96341 -1.58036,-3.91629 -1.83997,-6.20471 z m 6.72416,0 c 0.39228,2.31761 0.84213,5.73461 4.12017,6.20471 -0.84176,-0.96341 -1.58036,-3.91629 -1.83995,-6.20471 z m 6.72414,0 c 0.3923,2.31761 0.84215,5.73461 4.12018,6.20471 -0.84175,-0.96341 -1.58037,-3.91629 -1.83996,-6.20471 z m 6.72417,0 c 0.39234,2.31761 0.84214,5.73461 4.12016,6.20471 -0.84166,-0.96341 -1.58036,-3.91629 -1.83996,-6.20471 z m 6.72612,0 c 0.39236,2.31761 0.84224,5.73461 4.12017,6.20471 -0.84166,-0.96341 -1.58234,-3.91629 -1.84194,-6.20471 z m 6.72416,0 c 0.39233,2.31761 0.84212,5.73461 4.12016,6.20471 -0.84166,-0.96341 -1.58239,-3.91629 -1.84194,-6.20471 z m 6.72414,0 c 0.39235,2.31761 0.84214,5.73461 4.12017,6.20471 -0.84166,-0.96341 -1.5824,-3.91629 -1.84193,-6.20471 z m 6.72415,0 c 0.39236,2.31761 0.84213,5.73461 4.12017,6.20471 -0.84176,-0.96341 -1.58233,-3.91629 -1.84193,-6.20471 z m 6.72416,0 c 0.39235,2.31761 0.84214,5.73461 4.12016,6.20471 -0.84175,-0.96341 -1.58036,-3.91629 -1.83996,-6.20471 z m 6.72415,0 c 0.39228,2.31761 0.84213,5.73461 4.12016,6.20471 -0.84175,-0.96341 -1.58035,-3.91629 -1.83995,-6.20471 z m 6.72414,0 c 0.3923,2.31761 0.84214,5.73461 4.12018,6.20471 -0.84176,-0.96341 -1.58037,-3.91629 -1.83997,-6.20471 z m 6.72416,0 c 0.39228,2.31761 0.84411,5.73461 4.12213,6.20471 -0.84175,-0.96341 -1.58232,-3.91629 -1.84192,-6.20471 z m 6.72613,0 c 0.39228,2.31761 0.84213,5.73461 4.12017,6.20471 -0.84176,-0.96341 -1.58236,-3.91629 -1.84195,-6.20471 z m 6.72415,0 c 0.39228,2.31761 0.84213,5.73461 4.12016,6.20471 -0.84175,-0.96341 -1.58233,-3.91629 -1.84193,-6.20471 z m 6.72414,0 c 0.39236,2.31761 0.84204,5.73461 4.12017,6.20471 -0.84175,-0.96341 -1.58233,-3.91629 -1.84193,-6.20471 z m 6.72416,0 c 0.39236,2.31761 0.84214,5.73461 4.12016,6.20471 -0.84166,-0.96341 -1.58036,-3.91629 -1.83995,-6.20471 z m 6.72415,0 c 0.39235,2.31761 0.84213,5.73461 4.12017,6.20471 -0.84166,-0.96341 -1.58036,-3.91629 -1.83997,-6.20471 z m 6.72415,0 c 0.39236,2.31761 0.84213,5.73461 4.12018,6.20471 -0.84176,-0.96341 -1.58039,-3.91629 -1.83998,-6.20471 z"
       id="path19"
       style="stroke-width:1.69954;stroke-dasharray:none" /><path
       d="m 30.556278,143.68829 c 9.865186,6.63648 13.339988,7.25321 25.813537,3.49824 8.906233,12.46995 17.927702,11.49844 25.894133,21.95026 l 3.332796,-37.88678 c 0,0 -22.584658,-2.04529 -33.280271,-5.24736 -3.474431,-1.04018 -6.232241,-2.8356 -9.813421,-3.49823 -8.373187,-1.54929 -17.861044,-0.56043 -17.861044,4.31764 0,1.66591 1.066163,3.21805 4.420923,3.62477 z"
       id="path20"
       sodipodi:nodetypes="ccccssscc"
       style="fill:#ffb81c;fill-opacity:1;stroke-width:1.69954;stroke-dasharray:none" /><path
       d="m 39.943043,140.41437 c 1.215805,0.47464 2.481233,1.88876 2.346687,3.18543 -0.146494,1.41181 -1.853994,2.12134 -3.200028,2.80924 -2.766131,1.41366 -8.98953,1.64404 -12.373445,-0.38869 -0.904249,-0.54319 -1.280011,-1.53524 -1.280011,-2.52199 0,-1.02916 0.853341,-2.50085 0.853341,-2.50085"
       id="path21"
       style="fill:#ffb81c;fill-opacity:1;stroke-width:1.69954;stroke-dasharray:none"
       sodipodi:nodetypes="cssssc" /><path
       d="m 40.796384,135.04708 c 1.215805,0.47464 2.276891,1.75062 2.127937,3.08439 -0.148953,1.33377 -1.639078,2.09941 -2.981278,2.6274 -3.947786,1.55295 -10.056206,2.03274 -13.440121,0 -0.904249,-0.54318 -1.280011,-1.45851 -1.280011,-2.44526 0,-1.20051 1.279997,-3.07218 1.279997,-3.07218"
       id="path22"
       style="fill:#ffb81c;fill-opacity:1;stroke-width:1.69954;stroke-dasharray:none"
       sodipodi:nodetypes="czsssc" /><path
       d="m 24.642008,126.82206 c 0,1.66591 1.066163,3.21805 4.420923,3.62477 5.665446,0.68687 9.194245,-1.86068 11.733439,-0.89323 0.92492,0.3524 2.163436,1.09371 2.169911,2.78484 0.0049,1.27053 -1.690939,2.22343 -3.02325,2.7759 -3.638423,1.50876 -10.056208,2.03274 -13.440123,0 -0.904249,-0.54319 -1.280011,-1.41416 -1.280011,-2.4009 0,-1.33488 0.784107,-2.06808 1.323343,-3.00207"
       id="path23"
       style="fill:#ffb81c;fill-opacity:1;stroke-width:1.69954;stroke-dasharray:none"
       sodipodi:nodetypes="cssssssc" /><path
       d="m 167.84027,174.82438 c -4.2949,7.16015 1.66439,13.55824 -1.57379,19.03462 -10.45177,-2.37014 -20.85295,-3.42458 -27.47427,6.244 -3.24923,4.74459 0.69257,9.2845 6.34141,6.916 5.05165,4.64537 11.00266,1.67148 18.2917,-0.87 2.85948,-0.99705 7.63105,1.87253 11.40131,0.416 4.29684,-1.65995 7.2076,-6.55234 9.93173,-14.40159 l 4.23343,1.7759 c 0.0454,-3.35625 -1.44763,-5.91528 -3.39841,-8.23693 l 5.05208,1.69887 c 0.0311,-3.33852 -1.67741,-5.70863 -3.26524,-7.62426 l 4.86368,1.79654 c -0.97359,-4.3696 -0.0328,-8.06502 -0.46459,-9.53036 -0.93459,-3.17126 -1.42201,-1.59577 -2.65431,-7.49521 -14.63949,-6.41396 -11.48358,-21.52627 -8.796,-27.92442 l -27.87392,19.222 c -5.63175,3.66706 2.1027,16.85215 15.38519,18.97884 z"
       id="path24"
       sodipodi:nodetypes="ccscssccccccccccc"
       style="fill:#ffb81c;fill-opacity:1;stroke-width:1.69954;stroke-dasharray:none" /><path
       id="path25"
       style="fill:#ffb81c;fill-opacity:1;stroke-width:1.69954;stroke-dasharray:none"
       d="m 262.73047,46.341797 c -2.50638,-0.0422 -5.04326,1.106987 -6.63672,4.376953 -4.37223,-5.944287 -12.72366,-3.05617 -14.29297,2.603516 9.93907,-0.365449 12.21071,2.622 12.14118,7.197127 -0.0487,3.204721 -2.63034,5.393359 -5.78298,5.657472 -1.90264,0.159393 -4.12465,-0.578871 -6.26812,-2.770615 -3.35003,-3.42548 -6.2266,-6.883477 -9.3557,-9.760494 -17.13646,-15.755908 -37.8602,7.434966 -25.41407,24.23901 5.60434,7.566652 21.51746,13.544372 28,17.792968 8.31503,5.449586 10.88973,10.240066 10.25613,16.715726 -0.62486,6.38631 -5.06514,10.64705 -15.16824,10.60068 -7.48298,-0.0343 -18.2971,-6.77439 -27.38671,-8.10937 -17.01876,-2.49949 -28.06143,3.24175 -40.23641,3.30468 -23.25251,0.12019 -41.53703,-9.09765 -41.53703,-9.09765 l -33.957033,39.31445 c -6.984172,4.93893 -9.681584,19.55694 0,25.83398 -7.839157,4.69715 -7.228221,12.1379 -12.841797,19.61915 -11.346262,-2.62085 -20.86051,-3.02138 -27.466797,6.24414 -3.128175,4.82526 0.683184,9.28451 6.332031,6.91601 5.051645,4.64536 10.99221,1.67039 18.28125,-0.87109 2.900743,-1.01145 7.794212,1.91598 11.414063,0.41601 4.886829,-2.02498 11.614128,-12.90548 11.949219,-13.58984 l 2.765625,3.49219 c 1.861263,-2.89674 1.950855,-5.79467 1.515625,-8.69141 l 3.478514,3.73633 c 1.83926,-2.88775 1.69718,-5.77503 1.24805,-8.12305 l 3.29883,3.73633 c 0,0 0.54541,-1.62597 1.87304,-3.89844 1.43939,-2.06319 3.0024,-6.48097 2.9043,-8.9375 1.90433,1.65845 3.35152,2.52166 5.79687,2.19336 -0.10424,-3.21521 0.60179,-4.51956 1.51563,-5.92969 2.52087,-0.0183 5.8302,-0.21087 9.65625,-0.68359 12.8334,-1.5856 35.66521,-5.14364 49.86719,-16.95312 8.88345,-7.38694 15.676,-4.65862 18.39843,1.26171 3.41245,7.42084 9.91291,17.95626 23.24024,20.63086 -4.2949,7.16015 1.63271,13.5744 -1.60547,19.05079 -11.82253,-2.64967 -21.46769,-2.37434 -27.46484,6.24414 -3.28456,4.7202 0.68124,9.28451 6.33007,6.91601 5.05165,4.64536 10.99222,1.67039 18.28126,-0.87109 2.8762,-1.0029 7.64979,1.87023 11.41406,0.41601 4.29684,-1.65995 7.26415,-6.52184 9.98828,-14.37109 l 4.1914,1.70508 c 0.0454,-3.35624 -1.4379,-5.88343 -3.38867,-8.20508 l 5.08203,1.70703 c 0.0311,-3.33852 -1.86532,-5.95257 -3.29882,-7.63672 l 4.90429,1.78711 c -1.04393,-4.15552 -0.0945,-8.0084 -0.53515,-9.5039 -0.92456,-3.13733 -1.54712,-1.86357 -2.58594,-7.47461 -18.61039,-8.82308 -3.92164,-22.14886 -17.74609,-33.99805 16.24605,0.84468 26.73758,-5.28341 27.84551,-17.86812 0.73451,-10.43377 -5.16243,-17.026064 -13.32775,-21.836499 -9.69783,-5.713286 -22.24092,-11.16608 -26.27228,-16.460901 -9.18706,-12.066365 5.59662,-26.776316 16.13845,-16.451074 1.39424,1.365593 2.67445,2.498537 3.76431,3.686188 6.67442,7.273315 9.35999,10.35167 15.88691,10.41723 6.44214,-0.158263 11.40953,-4.918129 11.99219,-11.469247 0.43014,-4.836281 0.34861,-8.550889 10.26172,-10.162109 -1.05021,-2.010299 -4.22087,-4.033635 -7.44336,-4.087891 z"
       sodipodi:nodetypes="sccssssssssssccccccssccccccccccsssccscssccccccccccsssscscs" /><path
       d="m 74.110418,133.20099 -0.539746,7.16299 c -0.938348,3.92941 -2.096515,13.52976 0.619833,16.46742 2.136299,0.3027 4.589161,-1.34613 6.182285,-3.22079 -0.0099,1.94865 0.56483,5.72231 2.953118,8.39247 2.583316,-0.68069 5.100691,-3.34316 6.094427,-5.13004 0.862861,2.27771 1.93622,4.96931 4.302259,6.84629 2.703605,-1.57855 4.257724,-4.09331 5.385903,-6.59186 1.221373,2.35241 2.706303,4.82567 5.438223,6.07321 2.5296,-2.1587 3.28363,-3.77544 4.19784,-6.66641 1.78302,2.60358 3.75931,4.04939 6.45999,4.48442 2.12334,-2.2212 2.41855,-4.7832 2.77991,-7.75141 1.92626,2.51212 4.46202,3.71716 7.40182,3.97048 1.36428,-2.75581 1.07716,-5.66962 0.90366,-8.2031 2.01734,1.67666 4.84299,3.04671 7.60012,3.05225 1.21119,-3.54498 0.34885,-6.83743 -0.48381,-9.14144 2.28317,1.4725 5.13234,1.56655 7.16858,1.24056 1.07413,-3.61473 -1.75639,-13.7258 -9.06035,-19.11057 z"
       id="path26"
       sodipodi:nodetypes="ccccccccccccccccccc"
       style="fill:#ffb81c;fill-opacity:1;stroke-width:1.69954;stroke-dasharray:none" /><path
       d="m 69.219202,111.09378 c 0,0 -7.419625,11.43273 -8.718984,16.80102 -0.840814,3.47377 -0.659791,5.14983 0.222277,8.12153 2.113263,-0.12088 5.324429,-0.83781 6.820505,-2.36769 -0.09391,2.71179 -0.287799,5.78167 1.585471,8.54736 3.207013,-0.14883 5.896047,-2.9277 7.373856,-4.77764 -0.0022,3.2398 -0.279424,6.07958 2.447298,9.14711 3.696671,-0.6284 5.42888,-3.89666 7.21298,-6.09533 0.417082,2.62735 0.932924,5.77745 3.919382,8.67006 3.678051,-1.93185 5.000531,-4.97866 6.016069,-7.68474 1.197473,2.6873 2.286517,5.24613 5.669924,7.26286 3.02686,-2.45419 4.06496,-6.64738 4.29895,-8.30297 1.3283,2.15939 3.54683,5.08173 6.70024,5.7878 2.22358,-1.92606 2.86788,-5.9689 2.87485,-9.12096 1.64452,2.29901 3.80572,4.85157 6.99128,5.07898 2.46196,-2.46179 1.99505,-6.15523 1.83864,-8.89827 2.13379,1.89328 4.51397,3.90022 7.74559,3.53785 1.54934,-2.77032 1.26195,-5.71022 0.60708,-8.5129 2.20393,1.87258 4.48365,3.02309 8.15213,2.92836 1.00913,-2.99677 0.26833,-6.35256 -0.40417,-8.08946 2.91145,0.91324 6.39228,1.25575 9.72542,-0.7841 -4.50694,-10.7376 -16.90303,-13.11271 -29.39318,-15.21195 z"
       id="path27"
       sodipodi:nodetypes="csccccccccccccccccccccc"
       style="fill:#ffb81c;fill-opacity:1;stroke-width:1.69954;stroke-dasharray:none" /><path
       d="m 117.68297,57.734823 c -0.49966,-1.262291 -0.24512,-4.019588 -0.24512,-4.019588 -7.94365,1.832908 -8.45862,3.466636 -11.5437,7.286382 0.51972,-3.101147 0.17635,-4.46464 -2.4513,-6.476007 -1.10409,1.375243 -2.35879,4.458401 -3.676953,5.659237 -0.44916,-2.804376 -1.05518,-5.210181 -3.59637,-7.00799 -2.21722,1.944218 -3.4885,4.120842 -3.59636,7.00799 -1.318169,-1.200836 -2.572869,-4.283994 -3.676956,-5.659237 -2.627653,2.011367 -2.971027,3.37486 -2.451301,6.476007 -3.884256,-4.817491 -5.676509,-6.140822 -11.543702,-7.286382 0,0 0.07077,2.708893 -0.245125,4.019588 -0.731749,3.035403 -4.315587,6.963823 -1.20305,11.752608 -8.93006,5.660951 -6.987157,12.535479 -11.920264,20.726569 2.221158,-0.21082 2.703474,0.209578 6.143148,-0.278 -4.74026,3.67514 -5.755529,5.474641 -6.474194,10.824 1.721721,-0.62495 3.181281,-0.12442 6.531637,-0.978 -1.138473,2.43051 -3.590259,4.20672 -4.95642,5.35827 -3.376325,2.84589 -4.76289,5.69989 -5.598681,8.98948 2.993847,0.9635 5.791792,-0.29469 7.754389,-1.05702 -0.626929,1.15788 -2.835952,5.3438 -1.342987,7.96705 3.025455,0.63456 5.759317,-1.84906 7.671665,-3.07365 -0.272519,2.43268 -1.70195,5.70149 0.04724,8.00611 2.953071,0.0221 5.219242,-1.84632 7.02781,-3.69304 -0.342309,2.538 -0.453464,4.86268 1.450899,7.70034 3.095634,-0.91758 4.842309,-2.72083 6.396007,-4.60401 0.273378,2.47119 0.413824,5.00704 2.951726,7.41241 3.639858,-1.60221 4.7176,-4.17739 5.785865,-6.15161 0.616855,2.20699 2.016189,5.33789 4.441204,6.73532 2.739753,-1.82211 4.025453,-5.62286 4.393163,-7.64621 0.94963,1.9288 2.91902,4.60075 5.85224,5.57875 2.27096,-2.34201 2.46346,-5.69551 2.65896,-8.06634 1.66778,1.71769 3.94606,3.88872 6.9561,4.21914 2.04111,-2.39803 1.59963,-5.72387 1.06339,-8.41635 2.08996,1.66936 4.68575,2.91911 7.72719,2.52566 0.99794,-2.60052 0.61793,-5.11374 -0.27232,-7.39942 2.30089,0.71387 5.30463,2.07285 8.92851,0.54455 -0.0316,-4.02459 -4.99229,-8.25956 -7.51721,-9.82237 -1.52538,-0.94414 -3.27189,-2.9237 -4.38299,-5.10707 2.24758,0.64954 4.10862,0.43507 5.81713,0.978 -0.80868,-5.490712 -1.8509,-7.178809 -6.55253,-10.824 3.57939,0.55333 4.03077,0.06726 6.25193,0.278 -4.93311,-8.1911 -4.03143,-16.488486 -11.39963,-20.726567 2.30597,-5.57046 0.79713,-6.700977 -1.20305,-11.752608 z"
       id="path28"
       sodipodi:nodetypes="ccccccccccccccccccccccccccccccccccccsccccccc"
       style="fill:#ffb81c;fill-opacity:1;stroke-width:1.69954;stroke-dasharray:none" /><path
       fill="#000000"
       stroke="none"
       d="m 133.40625,142.94547 -0.13172,2.44445 c -0.8038,-2.99983 -1.70555,-4.33272 -2.43252,-5.89741 1.42526,1.20365 2.27934,2.69872 4.97024,3.61457 z m -4.85367,6.65262 -2.26264,-0.56343 -0.71778,2.22117 c -0.17925,-3.28466 -1.02986,-4.95031 -1.54018,-6.77741 1.23754,1.47775 1.73596,3.4564 4.5206,5.11967 z m -8.24278,4.84933 -2.32534,-1.18014 -1.178,2.32153 c 0.41825,-3.31692 -0.54551,-5.54907 -0.86468,-7.79851 1.04534,1.98108 1.9226,4.53105 4.36802,6.65712 z m -9.36745,3.44609 -2.19779,-1.35924 -1.54348,1.82219 c 1.09715,-2.91436 0.47584,-6.17134 0.44618,-8.36161 0.75494,2.05273 1.18226,5.63447 3.29509,7.89866 z m -10.07246,0.6563 -1.761393,-1.42238 -1.667197,1.42148 c 1.391777,-2.73893 1.298347,-5.19793 1.572017,-7.11029 0.404122,1.87006 0.408878,4.48701 1.856573,7.11119 z m -13.315096,-0.51282 1.865541,-1.16399 1.499628,1.47361 c -0.896599,-2.26571 -0.593655,-4.92376 -0.721796,-6.71002 -0.550535,1.67676 -0.983411,4.31337 -2.643373,6.4004 z m -7.182004,-4.42642 1.016169,1.99988 c -0.353727,-2.45537 0.162208,-4.55864 0.407397,-6.44906 -0.954592,1.72581 -1.595679,3.68656 -3.44769,5.2513 z"
       id="path29"
       sodipodi:nodetypes="ccccccccccccccccccccccccccccccccccc"
       style="stroke-width:1.69954;stroke-dasharray:none" /><path
       fill="#000000"
       stroke="none"
       d="m 140.57257,123.12675 -0.13579,2.72343 c -0.51932,-3.38513 -2.83659,-5.93375 -3.54208,-7.29279 1.35385,1.07687 3.20288,3.63609 6.07311,4.28549 z m -5.19318,5.96117 -2.55478,-0.80398 -0.43302,2.25491 c -0.47874,-3.14226 -1.82483,-4.97802 -2.63069,-6.98914 1.57796,1.79016 2.82354,3.76847 5.61849,5.53821 z m -8.95448,4.73737 -1.95297,-0.56239 -0.73039,2.039 c -0.10878,-3.06425 -0.92948,-4.7393 -1.4503,-6.84457 1.26927,1.82255 2.06908,3.59271 4.13366,5.36796 z m -8.83196,4.40018 -1.89915,-1.14328 -0.9712,1.75287 c 0.19006,-2.71183 -0.37424,-4.35701 -0.7499,-6.89072 1.21289,2.24112 1.8407,4.11634 3.62025,6.28113 z m -19.929603,4.61793 -1.565291,-1.38794 -1.521579,1.50354 c 1.301717,-2.9201 1.236415,-5.40673 1.684532,-7.03662 0.273478,1.59957 0.204523,4.06208 1.402338,6.92102 z m 10.293713,-1.15945 -1.89794,-1.26079 -1.40442,2.24607 c 1.02665,-3.47954 0.60275,-5.89168 0.71552,-7.9609 0.71381,2.04474 0.93936,4.65633 2.58684,6.97562 z m -23.965722,0.2507 2.171267,-1.46452 1.23401,2.07043 c -0.717478,-3.2551 -0.335566,-5.51662 -0.349258,-7.22175 -0.670969,1.54664 -1.188843,4.08309 -3.056019,6.61584 z m -9.632688,-3.37988 2.143677,-1.13641 0.841907,2.08253 c 0.08831,-2.95342 0.933483,-5.29019 1.176123,-6.85548 -0.880529,1.28337 -2.009509,3.57255 -4.161707,5.90936 z m -9.067315,-4.43045 2.251665,-0.47569 0.801244,2.68436 c -0.02582,-3.11727 1.485833,-6.42292 1.931615,-8.06452 -0.926159,1.4185 -2.438794,4.58115 -4.984524,5.85585 z"
       id="path30"
       sodipodi:nodetypes="ccccccccccccccccccccccccccccccccccccccccccccc"
       style="stroke-width:1.69954;stroke-dasharray:none" /><path
       id="path1-8"
       style="fill:#000000;stroke:none;stroke-width:1.69954;stroke-dasharray:none"
       inkscape:label="path31"
       d="m 77.371094,58.150391 c 0.43414,5.696249 -3.652992,6.020793 -0.357422,11.861328 1.38977,-4.193357 2.909931,-4.543811 6.957031,-2.761719 -0.14518,-5.723885 -2.531699,-6.199067 -6.599609,-9.099609 z m 37.275386,0 c -4.06791,2.900542 -6.45446,3.375724 -6.5996,9.099609 4.0471,-1.782092 5.5653,-1.431641 6.95507,2.761719 3.29557,-5.840538 -0.78961,-6.165079 -0.35547,-11.861328 z M 75.853516,74.154297 c -3.40443,2.079441 -4.038216,7.108804 1.427734,9.179687 -4.16638,3.56224 -3.443178,11.550278 0.357422,15.435547 -1.506062,2.016179 -4.507587,6.659059 -5.835938,9.384769 2.790894,-2.37025 4.916476,-5.38004 7.261719,-8.166019 0.818872,0.590699 1.77914,1.083529 2.943359,1.542969 -1.10035,2.08603 -3.296842,7.59848 -4.101562,10.56055 2.33956,-2.70801 4.409009,-7.46775 5.974609,-9.91016 0.76973,0.20355 1.589476,0.29631 2.408203,0.40625 -0.6097,1.74956 -0.390263,3.58961 0.623047,5.11719 -1.10671,1.97724 -3.419763,7.71866 -4.279297,10.72461 2.21103,-2.49589 4.156322,-6.71517 5.707032,-9.26172 0.89303,0.71588 1.980898,1.2607 3.298828,1.625 -0.49778,2.54439 -1.064463,7.86855 -1.070313,10.72265 1.45528,-2.92126 2.2293,-7.49754 3.03125,-10.3164 0.98626,0.19695 2.406425,0.19654 3.390625,0 0.80195,2.81886 1.575984,7.39514 3.031246,10.3164 -0.006,-2.85411 -0.572528,-8.17826 -1.070308,-10.72265 1.317928,-0.3643 2.405798,-0.90912 3.298828,-1.625 1.55071,2.54655 3.496,6.76583 5.70703,9.26172 -0.85953,-3.00595 -3.17259,-8.74737 -4.2793,-10.72461 1.01331,-1.52758 1.2347,-3.36763 0.625,-5.11719 0.81873,-0.10994 1.63652,-0.2027 2.40625,-0.40625 1.5656,2.44241 3.63505,7.20215 5.97461,9.91016 -0.80472,-2.96207 -3.00121,-8.47452 -4.10156,-10.56055 1.06942,-0.42202 2.06591,-0.91001 2.94336,-1.542969 1.97572,2.299039 4.67376,6.061219 7.26172,8.166019 -1.2888,-2.64458 -4.26777,-7.28543 -5.83594,-9.384769 3.8006,-3.88527 4.5238,-11.873307 0.35742,-15.435547 5.46595,-2.070883 4.83217,-7.100246 1.42774,-9.179687 0.62694,1.786658 1.09055,3.208716 0.53515,5.28125 -1.11995,2.650379 -3.88717,2.810267 -6.42187,3.085937 1.79829,1.13965 3.73749,2.24907 4.72656,4.22461 2.62229,9.27435 -6.29537,15.548596 -13.910154,14.298826 -3.0012,-0.49254 -3.494252,-1.01967 -3.300782,-3.818358 0.60014,-0.06215 1.347482,-0.217149 2.050782,-0.568359 0.63844,-0.31884 0.895916,-0.657459 1.160156,-0.974609 0.26424,-0.31728 0.479758,-0.546913 0.535158,-0.570313 0.83716,-0.3603 2.14062,-0.242187 2.14062,-0.242187 l 1.07032,0.242187 0.0879,-1.054687 c 0.0715,-0.91625 0.29305,-1.50262 -0.44532,-3 -0.59877,-1.21425 -1.51129,-1.945539 -2.14062,-2.355469 -0.31467,-0.20498 -0.4983,-0.29888 -0.625,-0.40625 -0.12665,-0.1071 -0.15494,-0.154941 -0.17774,-0.244141 -0.821222,-3.03988 -1.075654,-5.672918 -0.267574,-8.210937 0.483654,-1.51908 2.138404,-2.804301 4.281254,-3.087891 2.30828,-0.30548 5.12094,0.341293 6.41992,0.570313 -3.67793,-4.19173 -11.177221,-2.633933 -12.662111,2.029297 -0.92456,2.903128 -0.579232,5.972058 0.267578,9.105468 0.21998,0.81391 0.749518,1.230339 1.603515,1.78711 0.548178,0.35705 1.090158,0.676189 1.517578,1.542968 0.36697,0.74404 0.22312,0.719411 0.17774,1.375 -0.64173,-0.0481 -1.03471,-0.517741 -2.050786,-0.08008 -0.67476,0.29061 -1.046301,0.786679 -1.337891,1.136719 -0.23683,0.284408 -0.45278,0.517536 -0.46875,0.566406 l -0.002,0.002 v 0.002 0.002 h 0.002 v 0.002 h 0.002 v 0.002 c -0.28426,0.135663 -0.855906,0.270752 -1.316406,0.318359 -0.25522,0.02633 -1.528616,0.0265 -1.785156,0 -0.46055,-0.04761 -1.032187,-0.182677 -1.316406,-0.318359 v -0.002 h 0.002 l 0.002,-0.002 v -0.002 -0.002 l -0.002,-0.002 c -0.016,-0.04887 -0.23191,-0.281998 -0.46875,-0.566406 -0.29159,-0.35004 -0.663131,-0.846108 -1.337891,-1.136719 -1.01608,-0.43767 -1.409121,0.03198 -2.050781,0.08008 -0.0454,-0.65559 -0.189236,-0.630959 0.177734,-1.375 0.42742,-0.86678 0.969398,-1.185918 1.517578,-1.542968 0.854,-0.55677 1.383536,-0.9732 1.603516,-1.78711 0.84681,-3.13341 1.192138,-6.20234 0.267578,-9.105468 -1.48492,-4.66323 -8.984179,-6.221027 -12.662109,-2.029297 1.29898,-0.22902 4.111641,-0.875793 6.419922,-0.570313 2.142848,0.28359 3.797589,1.568811 4.28125,3.087891 0.80808,2.538019 0.553661,5.171057 -0.267579,8.210937 -0.0228,0.0892 -0.05109,0.137041 -0.177734,0.244141 -0.12665,0.10737 -0.3103,0.20127 -0.625,0.40625 -0.62933,0.40993 -1.541855,1.141219 -2.140625,2.355469 -0.73837,1.49738 -0.516822,2.08375 -0.445312,3 l 0.08984,1.054687 1.06836,-0.242187 c 0,0 1.303465,-0.118113 2.140625,0.242187 0.0554,0.0234 0.270916,0.253033 0.535156,0.570313 0.26424,0.31715 0.521716,0.655769 1.160156,0.974609 0.7033,0.35121 1.450641,0.50621 2.050781,0.568359 0.19347,2.798698 -0.297628,3.325818 -3.298828,3.818358 -6.965436,1.14373 -16.682952,-4.499064 -13.912109,-14.298826 0.98907,-1.97554 2.928272,-3.08496 4.726562,-4.22461 -2.5347,-0.27567 -5.301925,-0.435558 -6.421875,-3.085937 -0.55539,-2.072534 -0.0918,-3.494592 0.535157,-5.28125 z m 9.966796,4.638672 c -0.92991,0.02139 -1.872597,0.333702 -2.742187,0.722656 0.368,2.07233 2.767634,4.818159 6.865234,2.599609 -1.06236,-2.584093 -2.573194,-3.357921 -4.123047,-3.322265 z m 18.949218,0 c -1.54985,-0.03566 -3.06069,0.738172 -4.12305,3.322265 4.0976,2.21855 6.49724,-0.527279 6.86524,-2.599609 -0.86959,-0.388954 -1.81228,-0.701263 -2.74219,-0.722656 z m -9.478514,22.578121 c 1.67176,0.93973 4.085442,1.6441 7.048824,1.46094 1.48273,3.18794 -1.90131,6.00949 -7.050778,6.01172 -5.14945,-0.002 -8.521782,-2.82379 -7.039062,-6.01172 2.9634,0.18316 5.369246,-0.52121 7.041016,-1.46094 z m -26.415265,7.36353 c -0.859745,0.76044 -3.143079,3.06857 -5.826923,4.1521 l 1.884766,0.18555 0.08594,1.74609 c 1.142947,-2.69627 3.30569,-5.1812 3.85622,-6.08374 z m 54.116439,0.3689 c 1.09201,1.56043 3.65451,3.90432 4.45312,6.88476 l 0.29492,-1.82226 1.8125,-0.29688 c -2.66146,-1.11063 -4.85859,-3.67155 -6.56054,-4.76562 z m -48.395285,3.82124 c -0.909923,0.98865 -2.666988,3.56424 -5.229717,5.31191 l 1.894531,-0.26987 0.550781,1.76562 c 0.688761,-3.4248 2.228202,-5.58871 2.784405,-6.80766 z m 42.387475,0.87212 c 0.68367,1.79707 2.28364,3.87201 2.74804,7.00781 l 0.55274,-1.76367 1.58593,0.10937 c -2.33084,-1.53229 -3.49436,-3.89387 -4.88671,-5.35351 z m -36.081971,2.99331 c -0.856874,1.21226 -2.195037,3.96578 -4.134831,5.85434 l 1.574219,-0.36523 0.685547,1.54687 c 0.292051,-2.8407 1.531506,-5.62944 1.875065,-7.03598 z m 29.386651,0.48715 c 0.10252,1.61244 1.2262,4.59513 0.95899,7.77344 l 1.01757,-1.8125 1.93946,0.70899 c -2.15814,-2.08708 -3.11559,-5.26826 -3.91602,-6.66993 z m -22.489504,2.10988 c -0.612858,1.19772 -1.540153,4.72872 -3.215572,6.54051 l 1.59961,-0.55273 1.03125,1.53125 c -0.366406,-2.70034 0.497927,-6.16761 0.584712,-7.51903 z m 15.175784,0.14012 c -0.15141,1.57237 0.35378,4.64989 -0.39526,7.44532 l 1.17383,-1.24805 1.55468,0.98437 c -1.54878,-2.32348 -1.91076,-5.76731 -2.33325,-7.18164 z m -7.807371,0.88086 c -0.351258,1.58049 -0.442426,4.7156 -1.6875,7.125 l 1.439453,-0.89648 1.300781,1.23047 c -0.981844,-2.72349 -0.838079,-5.85802 -1.052734,-7.45899 z"
       sodipodi:nodetypes="ccccccccsccccccccccccccccccccccccccccccccccscccccssccssccsccccccccccccccccccccccccccccccssccsscccccsccccccsscssccscccccccccccccccccccccccccccccccccccccccccccccccccccc" /><path
       fill="#000000"
       stroke="none"
       d="m 67.383068,197.76753 c -8.82265,-1.02707 -17.824178,2.44438 -14.625208,10.23909 l 1.873038,-0.63462 c -2.18341,-7.35945 7.52529,-8.67043 12.75217,-9.60447 z M 202.50774,147.73996 c 0.95176,6.89405 3.30217,12.11834 7.31157,16.0779 4.00939,3.95957 9.52707,6.59565 16.85487,8.21216 -2.46422,-3.55557 -9.52422,-5.03968 -14.89145,-9.74137 -5.1257,-4.49011 -5.83523,-11.40188 -9.27499,-14.54869 z m 22.13986,45.3869 c 1.10354,-2.19339 2.63663,-4.95094 3.00771,-7.82178 0.37109,-2.87085 0.70217,-5.79715 -0.7074,-7.97357 -1.73253,1.09925 -3.09179,15.36043 -2.30031,15.79535 z m -26.41755,-47.44378 c 0.46806,-3.31442 -2.10784,-4.75542 -4.66306,-5.30401 -2.99504,-0.64302 -6.50373,0.2698 -7.32519,2.67828 4.46379,-1.79455 9.33678,-0.95693 11.98825,2.62573 z m -67.39228,11.80128 c -0.50888,3.36113 6.38495,10.33471 10.41944,10.50252 l 4.71268,-0.95122 c -7.324,0.01 -13.82613,-6.20145 -15.13212,-9.5513 z m -49.62047,40.527 c 3.532107,-2.63106 6.331138,-6.48743 7.495736,-8.11764 1.741061,-2.43715 2.626384,-3.61656 2.604782,-6.71803 -2.104046,0.15962 -10.545908,14.09783 -10.100518,14.83567 z m 130.19524,-0.45125 c -8.82265,-1.02707 -17.82382,2.74918 -14.62485,10.54389 l 1.87268,-0.732 c -2.18341,-7.35945 7.52529,-8.87785 12.75217,-9.81189 z m -52.32858,0.14501 c -8.82265,-1.02707 -17.82382,2.60417 -14.62485,10.39888 l 1.87268,-0.732 c -2.18341,-7.35945 7.52529,-8.73284 12.75217,-9.66688 z M 152.121,142.363 c 0.86942,4.00406 18.16779,15.34949 23.69878,12.74373 l 2.85991,-2.19071 c -7.24365,3.1125 -22.99635,-6.63106 -26.55869,-10.55302 z m -4.6217,4.23944 c -0.23687,4.11636 15.7151,13.93259 20.46556,13.01177 l 4.19826,-2.1498 c -5.03679,2.8139 -22.39886,-6.4986 -24.66382,-10.86197 z m -5.27771,4.08032 c 0.77433,5.14571 14.66587,13.50348 17.98714,12.30948 l 4.6331,-1.83426 c -7.56604,1.6894 -19.81404,-5.4913 -22.62024,-10.47522 z m -5.63062,3.661 c -0.362,3.93193 9.26306,10.92476 13.59086,11.69882 l 5.44535,-1.52112 c -6.91071,1.1122 -17.61319,-6.6068 -19.03621,-10.1777 z m -11.52633,5.76076 c -0.16612,1.50942 1.93294,7.49062 6.29991,9.43769 l 4.59159,-0.65677 c -5.97067,-0.89105 -9.60471,-6.43293 -10.8915,-8.78092 z M 118.63,162.383 c 0.0246,1.84116 1.17027,6.50218 3.5552,8.13086 l 4.18617,-0.37337 c -4.66672,-1.54429 -7.11343,-6.47674 -7.74137,-7.75749 z m 51.74059,2.08078 c -2.16654,-0.81245 -3.02122,-1.1019 -4.37332,-3.81657 l 1.96759,-1.033 c 0.80558,2.56758 1.76787,4.23151 2.40581,4.8496 z m -3.43273,2.19172 c -2.294,-0.4588 -3.80494,-1.70265 -4.77493,-4.39786 l 2.28962,-0.93271 c 0.0582,0.64926 0.10565,3.02484 2.48541,5.33059 z m -9.02529,-2.86523 2.29616,-0.79803 c -0.14858,1.84697 1.65566,4.01857 3.09954,5.98085 -2.69285,-1.21148 -4.10822,-2.18585 -5.3957,-5.18282 z m 15.76718,33.54442 c 1.4847,-1.99806 3.39722,-4.6913 4.22459,-7.485 0.82215,-2.77606 1.30994,-5.33125 0.3126,-7.68932 -1.90752,0.82449 -5.23944,14.62666 -4.53732,15.17432 z"
       id="path32"
       sodipodi:nodetypes="cccccscsccscccscccccccsccccccccccccccccccccccccccccccccccscccsscccscccccsccc"
       style="stroke-width:1.69954;stroke-dasharray:none" /><path
       fill="#000000"
       stroke="none"
       d="m 211.53596,125.56724 c 7.72839,0 11.10305,4.87043 19.25195,4.05034 l -6.90255,0.9567 c 3.35576,3.01422 4.92908,5.8114 4.898,8.35278 -3.13814,-9.16417 -11.03238,-10.24138 -17.2474,-13.35982 z"
       id="path33"
       sodipodi:nodetypes="ccccc"
       style="stroke-width:1.69954;stroke-dasharray:none" /></g></svg>
