<svg
  width="24"
  height="24"
  viewBox="0 0 24 24"
  fill="none"
  xmlns="http://www.w3.org/2000/svg"
>
  <g fill-rule="evenodd" clip-rule="evenodd" clip-path="url(#clip0_ir)">
    <path d="M-9 0H32.9984V23.9963H-9V0Z" fill="white"></path>
    <path d="M-9 16.1152H32.9984V24.0011H-9V16.1152Z" fill="#DA0000"></path>
    <path d="M-9 0H32.9984V7.88589H-9V0Z" fill="#239F40"></path>
    <path
      d="M13.1095 9.26001C13.511 9.74381 14.7302 12.4289 12.3741 14.1899C11.2662 15.022 11.9532 15.0607 11.9871 15.2059C13.7674 14.2576 14.348 12.9804 14.3335 11.829C14.319 10.6824 13.7142 9.67124 13.1143 9.26001H13.1095Z"
      fill="#DA0000"></path>
    <path
      d="M13.3514 9.13403C13.7849 9.39952 14.154 9.75789 14.4322 10.1833C14.7104 10.6087 14.8907 11.0906 14.9601 11.5941C15.0295 12.0977 14.9863 12.6103 14.8336 13.0952C14.6809 13.58 14.4225 14.0249 14.0771 14.3977C15.3543 14.1171 16.9799 10.3484 13.3417 9.13403H13.3514ZM10.647 9.13403C10.2135 9.39952 9.84436 9.75789 9.56616 10.1833C9.28797 10.6087 9.10766 11.0906 9.03824 11.5941C8.96882 12.0977 9.01201 12.6103 9.16471 13.0952C9.31741 13.58 9.57581 14.0249 9.92127 14.3977C8.63921 14.1171 7.01365 10.3484 10.647 9.13403Z"
      fill="#DA0000"></path>
    <path
      d="M10.884 9.26001C10.4873 9.74381 9.26328 12.4289 11.6194 14.1899C12.7273 15.022 12.0403 15.0607 12.0064 15.2059C10.2309 14.2576 9.64548 12.9804 9.65999 11.829C9.67451 10.6824 10.2841 9.67124 10.884 9.26001Z"
      fill="#DA0000"></path>
    <path
      d="M14.2561 14.959C13.4905 14.9886 12.7286 14.8395 12.0306 14.5236C12.1371 14.7316 12.2242 14.8623 12.3354 15.0751C12.9547 15.1283 13.811 15.2009 14.2561 14.959ZM9.80518 14.959C10.5018 14.9687 11.3824 14.8623 12.0306 14.5236C11.9242 14.7316 11.8371 14.8623 11.7258 15.0751C11.1066 15.1283 10.2503 15.2009 9.80518 14.959ZM11.0824 8.45679C11.2275 8.82931 11.5952 8.88737 11.9919 8.66482C12.2822 8.83899 12.7273 8.84866 12.8821 8.4713C12.9982 9.40019 12.021 9.18248 11.9871 9.00348C11.6243 9.35181 10.9469 9.14862 11.0824 8.45679Z"
      fill="#DA0000"></path>
    <path
      d="M12.0161 15.5443L12.3838 15.1234L12.4322 9.49202L11.9968 9.10498L11.5613 9.47267L11.6484 15.1428L12.0161 15.5443Z"
      fill="#DA0000"></path>
  </g>
  <defs>
    <clipPath id="clip0_ir">
      <rect width="24" height="24" rx="12" fill="white"></rect>
    </clipPath>
  </defs>
</svg>
