<?xml version="1.0" standalone="no"?>
<!DOCTYPE svg PUBLIC "-//W3C//DTD SVG 20010904//EN"
 "http://www.w3.org/TR/2001/REC-SVG-20010904/DTD/svg10.dtd">
<svg version="1.0" xmlns="http://www.w3.org/2000/svg"
 width="969.000000pt" height="969.000000pt" viewBox="0 0 969.000000 969.000000"
 preserveAspectRatio="xMidYMid meet">
<g transform="translate(0.000000,969.000000) scale(0.100000,-0.100000)"
fill="#000000" stroke="none">
<path d="M4817 9648 c-14 -23 -521 -956 -1127 -2073 -1211 -2230 -1606 -2958
-1982 -3649 -137 -252 -257 -474 -266 -493 l-16 -34 1699 -1699 c935 -935
1707 -1700 1715 -1700 21 0 3410 3391 3410 3412 0 10 -211 406 -469 880 -257
475 -753 1387 -1101 2028 -348 641 -731 1346 -851 1568 -269 494 -610 1123
-816 1502 -85 157 -159 289 -163 293 -4 5 -19 -11 -33 -35z m251 -3208 c121
-223 506 -933 856 -1579 l637 -1173 -108 -112 c-122 -125 -1467 -1519 -1553
-1609 l-56 -59 -853 884 c-469 486 -855 888 -858 894 -2 6 195 377 438 825
243 448 615 1134 826 1524 424 782 444 818 448 813 2 -2 102 -185 223 -408z"/>
</g>
</svg>
