<svg viewBox="0 0 33 32" fill="none" xmlns="http://www.w3.org/2000/svg">
  <path
    d="M19.1667 6.66667C18.813 6.66667 18.4739 6.52619 18.2239 6.27614C17.9738 6.02609 17.8333 5.68696 17.8333 5.33333C17.8333 4.97971 17.9738 4.64057 18.2239 4.39052C18.4739 4.14048 18.813 4 19.1667 4H27.1667C27.5203 4 27.8594 4.14048 28.1095 4.39052C28.3595 4.64057 28.5 4.97971 28.5 5.33333V13.3333C28.5 13.687 28.3595 14.0261 28.1095 14.2761C27.8594 14.5262 27.5203 14.6667 27.1667 14.6667C26.813 14.6667 26.4739 14.5262 26.2239 14.2761C25.9738 14.0261 25.8333 13.687 25.8333 13.3333V8.552L13.4427 20.9427C13.1912 21.1855 12.8544 21.3199 12.5048 21.3169C12.1552 21.3139 11.8208 21.1736 11.5736 20.9264C11.3264 20.6792 11.1861 20.3448 11.1831 19.9952C11.1801 19.6456 11.3145 19.3088 11.5573 19.0573L23.948 6.66667H19.1667ZM4.5 9.33333C4.5 8.62609 4.78095 7.94781 5.28105 7.44772C5.78115 6.94762 6.45942 6.66667 7.16667 6.66667H13.8333C14.187 6.66667 14.5261 6.80714 14.7761 7.05719C15.0262 7.30724 15.1667 7.64638 15.1667 8C15.1667 8.35362 15.0262 8.69276 14.7761 8.94281C14.5261 9.19286 14.187 9.33333 13.8333 9.33333H7.16667V25.3333H23.1667V18.6667C23.1667 18.313 23.3071 17.9739 23.5572 17.7239C23.8072 17.4738 24.1464 17.3333 24.5 17.3333C24.8536 17.3333 25.1928 17.4738 25.4428 17.7239C25.6929 17.9739 25.8333 18.313 25.8333 18.6667V25.3333C25.8333 26.0406 25.5524 26.7189 25.0523 27.219C24.5522 27.719 23.8739 28 23.1667 28H7.16667C6.45942 28 5.78115 27.719 5.28105 27.219C4.78095 26.7189 4.5 26.0406 4.5 25.3333V9.33333Z"
    fill="white" fill-opacity="0.3" />
</svg>
