
<svg width="24" height="24" viewBox="0 0 24 25" fill="currentColor" xmlns="http://www.w3.org/2000/svg">
    <path
        d="M14.6667 3.16667C14.313 3.16667 13.9739 3.02619 13.7239 2.77614C13.4738 2.52609 13.3333 2.18696 13.3333 1.83333C13.3333 1.47971 13.4738 1.14057 13.7239 0.890524C13.9739 0.640476 14.313 0.5 14.6667 0.5H22.6667C23.0203 0.5 23.3594 0.640476 23.6095 0.890524C23.8595 1.14057 24 1.47971 24 1.83333V9.83333C24 10.187 23.8595 10.5261 23.6095 10.7761C23.3594 11.0262 23.0203 11.1667 22.6667 11.1667C22.313 11.1667 21.9739 11.0262 21.7239 10.7761C21.4738 10.5261 21.3333 10.187 21.3333 9.83333V5.052L8.94267 17.4427C8.6912 17.6855 8.35439 17.8199 8.0048 17.8169C7.6552 17.8139 7.32079 17.6736 7.07358 17.4264C6.82636 17.1792 6.68614 16.8448 6.6831 16.4952C6.68006 16.1456 6.81446 15.8088 7.05733 15.5573L19.448 3.16667H14.6667ZM0 5.83333C0 5.12609 0.280951 4.44781 0.781048 3.94772C1.28115 3.44762 1.95942 3.16667 2.66667 3.16667H9.33333C9.68696 3.16667 10.0261 3.30714 10.2761 3.55719C10.5262 3.80724 10.6667 4.14638 10.6667 4.5C10.6667 4.85362 10.5262 5.19276 10.2761 5.44281C10.0261 5.69286 9.68696 5.83333 9.33333 5.83333H2.66667V21.8333H18.6667V15.1667C18.6667 14.813 18.8071 14.4739 19.0572 14.2239C19.3072 13.9738 19.6464 13.8333 20 13.8333C20.3536 13.8333 20.6928 13.9738 20.9428 14.2239C21.1929 14.4739 21.3333 14.813 21.3333 15.1667V21.8333C21.3333 22.5406 21.0524 23.2189 20.5523 23.719C20.0522 24.219 19.3739 24.5 18.6667 24.5H2.66667C1.95942 24.5 1.28115 24.219 0.781048 23.719C0.280951 23.2189 0 22.5406 0 21.8333V5.83333Z"
        fill="currentColor" fill-opacity="0.3" />
</svg>