<svg viewBox="0 0 24 24" fill="none" xmlns="http://www.w3.org/2000/svg">
<path d="M9.9375 17.6353C6.1875 18.7603 6.1875 15.7603 4.6875 15.3853M15.1875 19.8853V16.9828C15.2156 16.6252 15.1673 16.2657 15.0458 15.9282C14.9242 15.5907 14.7322 15.2829 14.4825 15.0253C16.8375 14.7628 19.3125 13.8703 19.3125 9.77533C19.3123 8.7282 18.9095 7.72123 18.1875 6.96283C18.5294 6.04671 18.5052 5.03409 18.12 4.13533C18.12 4.13533 17.235 3.87283 15.1875 5.24533C13.4685 4.77945 11.6565 4.77945 9.9375 5.24533C7.89 3.87283 7.005 4.13533 7.005 4.13533C6.61978 5.03409 6.59561 6.04671 6.9375 6.96283C6.2101 7.72685 5.80689 8.74293 5.8125 9.79783C5.8125 13.8628 8.2875 14.7553 10.6425 15.0478C10.3957 15.3028 10.2054 15.6069 10.084 15.9403C9.96252 16.2737 9.91261 16.6289 9.9375 16.9828V19.8853" stroke-width="2" stroke-linecap="round" stroke-linejoin="round"/>
</svg>
