<svg width="160" height="160" viewBox="0 0 160 160" fill="none" xmlns="http://www.w3.org/2000/svg">
  <path
    d="M117.054 48.8067L85.3555 31.7188C82.0188 29.8988 77.9743 29.8988 74.6376 31.7188L42.9391 48.8067C40.6136 50.0706 39.198 52.4972 39.198 55.2778C39.198 58.0078 40.6136 60.485 42.9391 61.7489L74.6376 78.8366C76.306 79.7466 78.1765 80.2016 79.9965 80.2016C81.8165 80.2016 83.6871 79.7466 85.3555 78.8366L117.054 61.7489C119.379 60.485 120.795 58.0584 120.795 55.2778C120.795 52.4972 119.379 50.0706 117.054 48.8067Z"
    fill="#F39F47" />
  <path
    d="M70.1905 83.2357L40.666 68.4734C38.391 67.3612 35.7621 67.4623 33.6387 68.7767C31.4648 70.1417 30.2009 72.4167 30.2009 74.9445V102.801C30.2009 107.604 32.8804 111.951 37.1776 114.125L66.6516 128.888C67.6627 129.393 68.775 129.646 69.8872 129.646C71.2016 129.646 72.5161 129.292 73.6789 128.584C75.8528 127.27 77.1167 124.944 77.1167 122.416V94.5602C77.1672 89.7068 74.4878 85.359 70.1905 83.2357Z"
    fill="#F4F4F4" />
  <path
    d="M126.361 68.7755C124.187 67.461 121.558 67.3093 119.334 68.4721L89.86 83.2344C85.5628 85.4083 82.8833 89.7055 82.8833 94.5589V122.415C82.8833 124.943 84.1472 127.268 86.3211 128.583C87.4839 129.291 88.7983 129.645 90.1128 129.645C91.225 129.645 92.3372 129.392 93.3483 128.886L122.822 114.124C127.12 111.95 129.799 107.653 129.799 102.799V74.9433C129.799 72.4155 128.535 70.1405 126.361 68.7755Z"
    fill="#D1D1D1" />
  <path fill-rule="evenodd" clip-rule="evenodd"
    d="M77.269 43.1207C79.363 43.1207 81.0607 43.9801 81.0607 45.0403V54.4826L92.5889 60.319C94.0697 61.0687 94.0697 62.2839 92.5889 63.0335C91.1081 63.7832 88.7077 63.7832 87.2269 63.0335L74.588 56.635C73.8767 56.2752 73.4773 55.7869 73.4773 55.2778V45.0403C73.4773 43.9801 75.175 43.1207 77.269 43.1207Z"
    fill="#2A2E39" />
</svg>
