<svg width="160" height="161" viewBox="0 0 160 161" fill="none" xmlns="http://www.w3.org/2000/svg">
  <path d="M34.6187 53.0237L81.092 25.9648L127.565 53.0237L81.092 80.5933L34.6187 53.0237Z"
    fill="#F39F47" />
  <path fill-rule="evenodd" clip-rule="evenodd"
    d="M76.1556 42.1406C78.2229 42.1406 79.899 42.9891 79.899 44.0357V53.358L91.2806 59.1201C92.7425 59.8602 92.7425 61.06 91.2806 61.8001C89.8186 62.5402 87.4488 62.5402 85.9868 61.8001L73.5087 55.483C72.8064 55.1278 72.4121 54.6456 72.4121 54.1431V44.0357C72.4121 42.9891 74.0882 42.1406 76.1556 42.1406Z"
    fill="#23252E" />
  <path fill-rule="evenodd" clip-rule="evenodd"
    d="M34.998 26.3789C35.1482 26.3789 35.2699 26.4405 35.2699 26.5166V27.1937L36.0967 27.6123C36.2029 27.666 36.2029 27.7532 36.0967 27.8069C35.9905 27.8607 35.8183 27.8607 35.7121 27.8069L34.8057 27.3481C34.7547 27.3223 34.7261 27.2873 34.7261 27.2507V26.5166C34.7261 26.4405 34.8478 26.3789 34.998 26.3789Z"
    fill="#2A2E39" />
  <path d="M82.395 80.0389L125.611 55.1523L127.348 105.317L82.395 132.463V80.0389Z" fill="#23252E" />
  <path
    d="M126.262 53.6328L126.131 106.795L81.0484 132.941L80.8311 80.6911L126.262 53.6328ZM88.3454 85.0344L88.4751 119.954L103.46 111.224L103.416 84.9042L110.973 80.4303V106.838L118.531 102.408L118.575 67.0534L88.345 85.0348L88.3454 85.0344Z"
    fill="white" />
  <path d="M34.6189 54.1523L34.7495 107.314L79.8324 133.46L80.0498 81.2106L34.6189 54.1523Z"
    fill="#D1D1D1" />
  <path
    d="M84.0457 26.3561C81.9606 25.1834 78.616 25.1834 76.5314 26.3561L35.3573 50.027C33.2723 51.1997 31.6221 54.1532 31.6221 56.4985V103.84C31.6221 106.229 33.3158 109.139 35.3573 110.312L76.5314 133.983C78.616 135.155 81.9606 135.155 84.0457 133.983L125.219 110.312C127.304 109.139 128.955 106.185 128.955 103.84V56.4985C128.955 54.1096 127.261 51.1997 125.22 50.027L84.0457 26.3561ZM120.573 51.1127C122.657 52.2853 122.657 54.2398 120.573 55.4125L84.523 76.1302C82.4383 77.3029 79.0941 77.3029 77.0095 76.1302L40.4386 55.1086C38.3536 53.936 38.3536 51.9815 40.4386 50.8088L76.4876 30.0913C78.5727 28.9187 81.9168 28.9187 84.0019 30.0913L120.572 51.1127H120.573ZM34.8359 59.9296C34.8359 57.5411 36.53 56.5856 38.5711 57.7579L75.4459 78.9532C77.5301 80.1259 79.1809 83.0796 79.1809 85.4246V127.468C79.1809 129.857 77.4872 130.812 75.4459 129.639L38.5711 108.444C36.4865 107.271 34.8359 104.318 34.8359 101.973V59.9296ZM86.2172 128.988C84.1321 130.16 82.4821 129.205 82.4821 126.816V85.4246C82.4821 83.0358 84.1759 80.1259 86.2167 78.9532L122.006 58.4095C124.091 57.2368 125.741 58.1923 125.741 60.5812V101.973C125.741 104.361 124.047 107.271 122.006 108.444L86.2172 128.988Z"
    fill="#23252E" />
</svg>
