<svg width="144" height="159" viewBox="0 0 144 159" fill="none" xmlns="http://www.w3.org/2000/svg">
  <path d="M6.35254 40.4813L73.155 1.58594L139.957 40.4813L73.155 80.1109L6.35254 40.4813Z"
    fill="#F39F47" />
  <path fill-rule="evenodd" clip-rule="evenodd"
    d="M66.0587 24.8359C69.0304 24.8359 71.4397 26.0556 71.4397 27.5601V40.9601L87.7999 49.2429C89.9014 50.3068 89.9014 52.0313 87.7999 53.0952C85.6985 54.159 82.292 54.159 80.1905 53.0952L62.254 44.0148C61.2445 43.5041 60.6777 42.8111 60.6777 42.0887V27.5601C60.6777 26.0556 63.087 24.8359 66.0587 24.8359Z"
    fill="#23252E" />
  <path fill-rule="evenodd" clip-rule="evenodd"
    d="M6.8977 2.17969C7.11357 2.17969 7.28857 2.26828 7.28857 2.37756V3.35093L8.47696 3.95258C8.62961 4.02986 8.62961 4.15513 8.47696 4.2324C8.32431 4.30968 8.07687 4.30968 7.92422 4.2324L6.62133 3.57282C6.54801 3.53572 6.50684 3.48538 6.50684 3.4329V2.37756C6.50684 2.26828 6.68184 2.17969 6.8977 2.17969Z"
    fill="#2A2E39" />
  <path d="M75.0273 79.3119L137.147 43.5391L139.645 115.647L75.0273 154.668V79.3119Z" fill="#23252E" />
  <path
    d="M138.084 41.3555L137.897 117.772L73.0927 155.356L72.7803 80.25L138.084 41.3555ZM83.5816 86.4932L83.7681 136.688L105.307 124.14L105.245 86.3061L116.108 79.8752V117.834L126.971 111.466L127.034 60.6468L83.581 86.4938L83.5816 86.4932Z"
    fill="white" />
  <path d="M6.35224 42.1055L6.53995 118.522L71.3438 156.106L71.6562 81L6.35224 42.1055Z"
    fill="#D1D1D1" />
  <path
    d="M77.4005 2.14706C74.4033 0.461397 69.5957 0.461397 66.5991 2.14706L7.41412 36.1725C4.41703 37.8582 2.04492 42.1036 2.04492 45.4749V113.526C2.04492 116.959 4.47959 121.142 7.41412 122.828L66.5991 156.853C69.5957 158.538 74.4033 158.538 77.4005 156.853L136.585 122.828C139.582 121.143 141.955 116.896 141.955 113.526V45.4749C141.955 42.041 139.52 37.8582 136.585 36.1725L77.4005 2.14706ZM129.906 37.7331C132.902 39.4187 132.902 42.2282 129.906 43.9138L78.0865 73.6941C75.0899 75.3798 70.283 75.3798 67.2864 73.6941L14.7181 43.477C11.721 41.7914 11.721 38.9819 14.7181 37.2963L66.5361 7.51624C69.5333 5.8306 74.3403 5.8306 77.3375 7.51624L129.904 37.7331H129.906ZM6.66458 50.4068C6.66458 46.9735 9.0998 45.6 12.0338 47.2851L65.0388 77.7521C68.0347 79.4378 70.4077 83.6835 70.4077 87.0542V147.489C70.4077 150.923 67.973 152.295 65.0388 150.61L12.0338 120.143C9.03725 118.457 6.66458 114.212 6.66458 110.841V50.4068ZM80.5218 149.673C77.5246 151.359 75.1529 149.986 75.1529 146.552V87.0542C75.1529 83.6205 77.5876 79.4378 80.5212 77.7521L131.966 48.2218C134.963 46.5361 137.334 47.9096 137.334 51.3434V110.841C137.334 114.275 134.9 118.457 131.966 120.143L80.5218 149.673Z"
    fill="#23252E" />
</svg>
