<svg viewBox="0 0 161 161" fill="none" xmlns="http://www.w3.org/2000/svg">
  <g clip-path="url(#clip0_1390_687)">
    <path fill-rule="evenodd" clip-rule="evenodd"
      d="M51.1377 33.222C51.1377 30.4937 53.3699 28.282 56.2429 28.282L99.387 26.8398L104.44 29.3281C107.315 30.7683 108.276 32.3385 108.276 35.1529V60.0089H97.8727V35.9989L62.9071 37.6924C62.1425 37.7294 61.5412 38.3633 61.5412 39.1328V60.0089H51.1377V33.222Z"
      fill="#ABABAB" />
    <path fill-rule="evenodd" clip-rule="evenodd"
      d="M49.3828 36.216C49.3828 31.4372 53.2375 27.5632 57.992 27.5632L95.9376 26.1211C100.693 26.1211 104.547 29.9951 104.547 34.7739V60.0113H94.5028V39.2207C94.5028 37.5815 93.1456 36.2718 91.516 36.3389L62.1793 37.545C60.6413 37.6082 59.4269 38.8798 59.4269 40.4269V60.0113H49.3828V36.216Z"
      fill="#DADADA" />
    <path
      d="M19.5708 68.1647C19.5708 61.6685 24.8104 56.4023 31.2737 56.4023C31.2737 56.4023 126.216 52.4336 132.679 52.4336L145.452 56.8712C149.426 58.2229 149.426 61.8486 149.426 68.1647L150.132 121.175C150.132 121.175 150.132 125.059 145.995 127.938L135.794 134.277L31.2737 132.114C24.8104 132.114 19.5708 126.848 19.5708 120.352V68.1647Z"
      fill="url(#paint0_linear_1390_687)" />
    <path
      d="M11.6787 66.2474C11.6787 59.975 16.6647 54.8518 22.904 54.7131L129.801 52.3388C136.238 52.1958 141.534 57.4015 141.534 63.873V123.927C141.534 130.399 136.238 135.604 129.801 135.461L22.904 133.087C16.6647 132.949 11.6787 127.825 11.6787 121.553V66.2474Z"
      fill="url(#paint1_linear_1390_687)" />
    <g filter="url(#filter0_i_1390_687)">
      <path
        d="M38.8746 79.1289L48.4766 97.2267L38.8746 107.587L29.2725 97.2267L38.8746 79.1289ZM38.8746 102.098L43.9258 96.5584L38.8746 87.0631L33.8687 96.5584L38.8746 102.098Z"
        fill="#383E4D" />
    </g>
    <g filter="url(#filter1_i_1390_687)">
      <path
        d="M59.8788 101.143H58.3738C58.111 101.143 57.9795 101.017 57.9795 100.765V91.7418C57.9795 91.6096 57.9137 91.5435 57.7825 91.5435H55.7395C55.4889 91.5435 55.3633 91.4175 55.3633 91.1653V89.9406C55.3633 89.6888 55.4889 89.5625 55.7395 89.5625H62.5131C62.7637 89.5625 62.8893 89.6888 62.8893 89.9406V91.1653C62.8893 91.4175 62.7637 91.5435 62.5131 91.5435H60.4701C60.327 91.5435 60.2553 91.6096 60.2553 91.7418V100.765C60.2553 101.017 60.1297 101.143 59.8788 101.143ZM67.3933 99.1615H68.6657C69.0478 99.1615 69.3165 99.0835 69.4718 98.9275C69.6392 98.7596 69.7227 98.4833 69.7227 98.0992V92.6062C69.7227 92.2221 69.6392 91.9517 69.4718 91.7957C69.3165 91.6277 69.0478 91.5435 68.6657 91.5435H67.3933C67.0111 91.5435 66.7424 91.6277 66.5869 91.7957C66.4316 91.9517 66.354 92.2221 66.354 92.6062V98.0992C66.354 98.4833 66.4316 98.7596 66.5869 98.9275C66.7424 99.0835 67.0111 99.1615 67.3933 99.1615ZM69.0419 101.143H67.0348C66.0912 101.143 65.3625 100.891 64.8487 100.386C64.335 99.8821 64.0782 99.1556 64.0782 98.2072V92.4981C64.0782 91.5497 64.335 90.8232 64.8487 90.3191C65.3625 89.8147 66.0912 89.5625 67.0348 89.5625H69.0419C69.9855 89.5625 70.7143 89.8147 71.228 90.3191C71.7417 90.8232 71.9985 91.5497 71.9985 92.4981V98.2072C71.9985 99.1556 71.7417 99.8821 71.228 100.386C70.7143 100.891 69.9855 101.143 69.0419 101.143ZM77.2802 99.1615H78.5523C78.9345 99.1615 79.2035 99.0835 79.3587 98.9275C79.5258 98.7596 79.6097 98.4833 79.6097 98.0992V92.6062C79.6097 92.2221 79.5258 91.9517 79.3587 91.7957C79.2035 91.6277 78.9345 91.5435 78.5523 91.5435H77.2802C76.8977 91.5435 76.629 91.6277 76.4738 91.7957C76.3186 91.9517 76.241 92.2221 76.241 92.6062V98.0992C76.241 98.4833 76.3186 98.7596 76.4738 98.9275C76.629 99.0835 76.8977 99.1615 77.2802 99.1615ZM78.9286 101.143H76.9217C75.9779 101.143 75.2494 100.891 74.7357 100.386C74.222 99.8821 73.9651 99.1556 73.9651 98.2072V92.4981C73.9651 91.5497 74.222 90.8232 74.7357 90.3191C75.2494 89.8147 75.9779 89.5625 76.9217 89.5625H78.9286C79.8724 89.5625 80.6012 89.8147 81.1146 90.3191C81.6283 90.8232 81.8852 91.5497 81.8852 92.4981V98.2072C81.8852 99.1556 81.6283 99.8821 81.1146 100.386C80.6012 100.891 79.8724 101.143 78.9286 101.143ZM90.3027 101.143H84.4076C84.1566 101.143 84.0313 101.017 84.0313 100.765V89.9406C84.0313 89.6888 84.1566 89.5625 84.4076 89.5625H85.9306C86.1815 89.5625 86.3068 89.6888 86.3068 89.9406V98.9457C86.3068 99.0776 86.3785 99.1437 86.5219 99.1437H90.3027C90.5418 99.1437 90.6612 99.2759 90.6612 99.54V100.765C90.6612 101.017 90.5418 101.143 90.3027 101.143ZM94.5536 99.2336H96.5604C96.9544 99.2336 97.2352 99.1556 97.4026 98.9996C97.5815 98.8316 97.6713 98.5613 97.6713 98.1891V97.1445C97.6713 96.7724 97.5815 96.5082 97.4026 96.3522C97.2234 96.1962 96.9307 96.1182 96.5245 96.1182H94.5536C94.422 96.1182 94.3562 96.184 94.3562 96.3162V99.0356C94.3562 99.1678 94.422 99.2336 94.5536 99.2336ZM94.5536 94.2632H96.3811C96.7633 94.2632 97.0442 94.1852 97.2234 94.0288C97.4026 93.8609 97.4921 93.5908 97.4921 93.2186V92.5162C97.4921 92.1441 97.4026 91.8799 97.2234 91.7236C97.056 91.5557 96.7814 91.4717 96.3989 91.4717H94.5536C94.422 91.4717 94.3562 91.5375 94.3562 91.6697V94.0649C94.3562 94.1971 94.422 94.2632 94.5536 94.2632ZM92.0807 100.765V89.9406C92.0807 89.6888 92.206 89.5625 92.457 89.5625H96.7574C97.7012 89.5625 98.4297 89.8147 98.9434 90.3191C99.4571 90.8232 99.714 91.5435 99.714 92.4802V93.2186C99.714 94.2391 99.2421 94.8995 98.2985 95.1996C98.7764 95.2717 99.1585 95.4697 99.4453 95.7939C99.7321 96.106 99.8751 96.5562 99.8751 97.1445V98.2251C99.8751 99.1615 99.6186 99.8821 99.1049 100.386C98.5912 100.891 97.8683 101.143 96.9366 101.143H92.457C92.206 101.143 92.0807 101.017 92.0807 100.765ZM105.156 99.1615H106.428C106.81 99.1615 107.079 99.0835 107.234 98.9275C107.401 98.7596 107.485 98.4833 107.485 98.0992V92.6062C107.485 92.2221 107.401 91.9517 107.234 91.7957C107.079 91.6277 106.81 91.5435 106.428 91.5435H105.156C104.773 91.5435 104.505 91.6277 104.349 91.7957C104.194 91.9517 104.116 92.2221 104.116 92.6062V98.0992C104.116 98.4833 104.194 98.7596 104.349 98.9275C104.505 99.0835 104.773 99.1615 105.156 99.1615ZM106.804 101.143H104.797C103.854 101.143 103.125 100.891 102.611 100.386C102.098 99.8821 101.841 99.1556 101.841 98.2072V92.4981C101.841 91.5497 102.098 90.8232 102.611 90.3191C103.125 89.8147 103.854 89.5625 104.797 89.5625H106.804C107.748 89.5625 108.477 89.8147 108.99 90.3191C109.504 90.8232 109.761 91.5497 109.761 92.4981V98.2072C109.761 99.1556 109.504 99.8821 108.99 100.386C108.477 100.891 107.748 101.143 106.804 101.143ZM113.215 101.143H111.441C111.321 101.143 111.238 101.107 111.19 101.035C111.142 100.951 111.142 100.855 111.19 100.746L113.967 95.2175L111.28 89.9588C111.232 89.8626 111.232 89.7727 111.28 89.6888C111.328 89.6045 111.411 89.5625 111.53 89.5625H113.251C113.549 89.5625 113.746 89.6888 113.842 89.9406L115.544 93.813H115.616L117.3 89.9406C117.42 89.6888 117.611 89.5625 117.874 89.5625H119.63C119.749 89.5625 119.833 89.6104 119.881 89.7066C119.94 89.7906 119.946 89.8808 119.898 89.9767L117.175 95.2175L119.952 100.729C120.012 100.849 120.018 100.951 119.97 101.035C119.922 101.107 119.833 101.143 119.701 101.143H117.91C117.659 101.143 117.485 101.023 117.39 100.783L115.616 96.8923H115.544L113.752 100.783C113.645 101.023 113.466 101.143 113.215 101.143Z"
        fill="#383E4D" />
    </g>
  </g>
  <defs>
    <filter id="filter0_i_1390_687" x="29.2725" y="79.1289" width="21.5057" height="28.457" filterUnits="userSpaceOnUse"
      color-interpolation-filters="sRGB">
      <feFlood flood-opacity="0" result="BackgroundImageFix" />
      <feBlend mode="normal" in="SourceGraphic" in2="BackgroundImageFix" result="shape" />
      <feColorMatrix in="SourceAlpha" type="matrix" values="0 0 0 0 0 0 0 0 0 0 0 0 0 0 0 0 0 0 127 0"
        result="hardAlpha" />
      <feOffset dx="2.30156" />
      <feGaussianBlur stdDeviation="2.30156" />
      <feComposite in2="hardAlpha" operator="arithmetic" k2="-1" k3="1" />
      <feColorMatrix type="matrix" values="0 0 0 0 0 0 0 0 0 0 0 0 0 0 0 0 0 0 0.25 0" />
      <feBlend mode="normal" in2="shape" result="effect1_innerShadow_1390_687" />
    </filter>
    <filter id="filter1_i_1390_687" x="55.3633" y="89.5625" width="66.9402" height="11.582" filterUnits="userSpaceOnUse"
      color-interpolation-filters="sRGB">
      <feFlood flood-opacity="0" result="BackgroundImageFix" />
      <feBlend mode="normal" in="SourceGraphic" in2="BackgroundImageFix" result="shape" />
      <feColorMatrix in="SourceAlpha" type="matrix" values="0 0 0 0 0 0 0 0 0 0 0 0 0 0 0 0 0 0 127 0"
        result="hardAlpha" />
      <feOffset dx="2.30156" />
      <feGaussianBlur stdDeviation="1.15078" />
      <feComposite in2="hardAlpha" operator="arithmetic" k2="-1" k3="1" />
      <feColorMatrix type="matrix" values="0 0 0 0 0 0 0 0 0 0 0 0 0 0 0 0 0 0 0.33 0" />
      <feBlend mode="normal" in2="shape" result="effect1_innerShadow_1390_687" />
    </filter>
    <linearGradient id="paint0_linear_1390_687" x1="84.4983" y1="56.4023" x2="84.4983" y2="132.114"
      gradientUnits="userSpaceOnUse">
      <stop stop-color="#E17914" />
      <stop offset="1" stop-color="#A84700" />
    </linearGradient>
    <linearGradient id="paint1_linear_1390_687" x1="24.7421" y1="66.5805" x2="132.246" y2="122.772"
      gradientUnits="userSpaceOnUse">
      <stop stop-color="#F7B55D" />
      <stop offset="1" stop-color="#FF8845" />
    </linearGradient>
    <clipPath id="clip0_1390_687">
      <rect width="139.025" height="109.653" fill="white" transform="translate(11.3931 26.0938)" />
    </clipPath>
  </defs>
</svg>
