<svg width="160" height="160" viewBox="0 0 160 160" fill="none" xmlns="http://www.w3.org/2000/svg">
  <g filter="url(#filter0_d_1417_7068)">
    <path fill-rule="evenodd" clip-rule="evenodd"
      d="M118.128 124.285C119.659 123.866 120.768 122.541 120.912 120.961L129.213 30.09C129.417 27.8608 127.662 25.9382 125.423 25.9382L34.9437 25.9382C32.7052 25.9382 30.9503 27.8608 31.1539 30.09L39.4577 120.999C39.6021 122.579 40.7116 123.903 42.2419 124.323L79.1117 134.424C79.7699 134.605 80.4646 134.605 81.1228 134.424L118.128 124.285Z"
      fill="url(#paint0_linear_1417_7068)" />
  </g>
  <g style="mix-blend-mode:soft-light" opacity="0.3">
    <path
      d="M108.018 112.208L80.4941 119.762L53.5051 112.109V113.07L80.9584 120.726L108.907 113.097L115.349 41.1039H114.261L108.018 112.208Z"
      fill="black" />
  </g>
  <path
    d="M114.798 37.9471H46.0327L52.6998 111.284L53.8595 111.601L47.2771 39.1915L114.548 39.1915L114.798 37.9471Z"
    fill="#E16117" />
  <g filter="url(#filter1_i_1417_7068)">
    <path
      d="M58.706 68.7814V63.1349L53.6689 52.8639H57.8884L59.5926 56.5916L60.6654 59.3112L61.7381 56.5916L63.4425 52.8639H67.5288L62.4917 63.1349V68.7814H58.706Z"
      fill="#2A2E39" />
  </g>
  <g filter="url(#filter2_i_1417_7068)">
    <path fill-rule="evenodd" clip-rule="evenodd"
      d="M68.4258 52.8639H73.6431C75.7785 52.8639 77.4 53.5478 78.4591 54.9484C79.5058 56.3327 80.0127 58.3015 80.0127 60.8227C80.0127 63.344 79.5058 65.3127 78.4591 66.6969C77.4 68.0976 75.7785 68.7814 73.6431 68.7814H68.4258V52.8639ZM73.4214 65.7073C74.3588 65.7073 75.0028 65.4099 75.406 64.8509C75.824 64.2714 76.0494 63.4046 76.0494 62.2178V59.4055C76.0494 58.2342 75.8243 57.3743 75.406 56.7946C75.0028 56.2357 74.3588 55.9382 73.4214 55.9382H72.1674V65.7073H73.4214Z"
      fill="#2A2E39" />
  </g>
  <g filter="url(#filter3_i_1417_7068)">
    <path
      d="M94.2779 68.7814L89.3078 59.6431L94.1144 52.8639H89.8247L87.0279 56.8625L85.5883 59.0579V52.8639H81.8025V68.7814H85.5883V64.1073L86.7025 62.5453L90.0053 68.7814H94.2779Z"
      fill="#2A2E39" />
  </g>
  <g filter="url(#filter4_i_1417_7068)">
    <path d="M96.6873 63.5973V59.9916H104.241V63.5973H96.6873Z" fill="#2A2E39" />
  </g>
  <g filter="url(#filter5_i_1417_7068)">
    <path
      d="M55.0713 87.2373H58.8793V80.7714H62.3181V87.2373H66.126V71.3198H62.3181V77.5864H58.8793V71.3198H55.0713V87.2373Z"
      fill="#2A2E39" />
  </g>
  <g filter="url(#filter6_i_1417_7068)">
    <path d="M75.78 87.2373H71.9942V74.5048H67.5398V71.3198H80.2344V74.5048H75.78V87.2373Z"
      fill="#2A2E39" />
  </g>
  <g filter="url(#filter7_i_1417_7068)">
    <path
      d="M89.9895 76.6644L89.8478 80.1153V87.2373H93.1905V71.3198H89.1415L87.3083 76.3249L85.4753 71.3198H81.1604V87.2373H84.5031V80.1153L84.3614 76.6644L87.1753 84.4291L89.9895 76.6644Z"
      fill="#2A2E39" />
  </g>
  <g filter="url(#filter8_i_1417_7068)">
    <path d="M95.6228 87.2373V71.3198H99.4307V84.0523H106.079V87.2373H95.6228Z" fill="#2A2E39" />
  </g>
  <path fill-rule="evenodd" clip-rule="evenodd"
    d="M119.043 124.18C120.137 123.88 120.932 122.92 121.036 121.79C124.329 85.7382 126.263 64.556 129.529 28.8008C129.675 27.2062 128.42 25.8245 126.819 25.8245L33.7571 25.8245C32.1557 25.8245 30.9003 27.1998 31.0459 28.7945L39.5449 121.839C39.6482 122.97 40.4419 123.917 41.5367 124.217L79.5023 134.619C79.9732 134.748 80.4701 134.748 80.9411 134.619L119.043 124.18ZM46.2183 42.6346C46.0726 41.0399 47.3281 39.6646 48.9294 39.6646H111.647C113.248 39.6646 114.503 41.0399 114.358 42.6346L108.114 110.991C108.011 112.121 107.217 113.069 106.122 113.369L80.9411 120.268C80.4702 120.397 79.9732 120.397 79.5023 120.268L54.4573 113.406C53.3626 113.106 52.5688 112.159 52.4656 111.028L46.2183 42.6346Z"
    fill="#F4F4F4" />
  <defs>
    <filter id="filter0_d_1417_7068" x="31.1377" y="25.9382" width="100.375" height="110.905"
      filterUnits="userSpaceOnUse" color-interpolation-filters="sRGB">
      <feFlood flood-opacity="0" result="BackgroundImageFix" />
      <feColorMatrix in="SourceAlpha" type="matrix"
        values="0 0 0 0 0 0 0 0 0 0 0 0 0 0 0 0 0 0 127 0" result="hardAlpha" />
      <feOffset dx="2.28334" dy="2.28334" />
      <feColorMatrix type="matrix"
        values="0 0 0 0 0.580392 0 0 0 0 0.580392 0 0 0 0 0.580392 0 0 0 0.25 0" />
      <feBlend mode="normal" in2="BackgroundImageFix" result="effect1_dropShadow_1417_7068" />
      <feBlend mode="normal" in="SourceGraphic" in2="effect1_dropShadow_1417_7068" result="shape" />
    </filter>
    <filter id="filter1_i_1417_7068" x="53.6689" y="52.8639" width="13.8599" height="15.9175"
      filterUnits="userSpaceOnUse" color-interpolation-filters="sRGB">
      <feFlood flood-opacity="0" result="BackgroundImageFix" />
      <feBlend mode="normal" in="SourceGraphic" in2="BackgroundImageFix" result="shape" />
      <feColorMatrix in="SourceAlpha" type="matrix"
        values="0 0 0 0 0 0 0 0 0 0 0 0 0 0 0 0 0 0 127 0" result="hardAlpha" />
      <feOffset dx="1.74163" dy="1.74163" />
      <feComposite in2="hardAlpha" operator="arithmetic" k2="-1" k3="1" />
      <feColorMatrix type="matrix" values="0 0 0 0 0 0 0 0 0 0 0 0 0 0 0 0 0 0 0.25 0" />
      <feBlend mode="normal" in2="shape" result="effect1_innerShadow_1417_7068" />
    </filter>
    <filter id="filter2_i_1417_7068" x="68.4258" y="52.8639" width="11.5869" height="15.9175"
      filterUnits="userSpaceOnUse" color-interpolation-filters="sRGB">
      <feFlood flood-opacity="0" result="BackgroundImageFix" />
      <feBlend mode="normal" in="SourceGraphic" in2="BackgroundImageFix" result="shape" />
      <feColorMatrix in="SourceAlpha" type="matrix"
        values="0 0 0 0 0 0 0 0 0 0 0 0 0 0 0 0 0 0 127 0" result="hardAlpha" />
      <feOffset dx="1.74163" dy="1.74163" />
      <feComposite in2="hardAlpha" operator="arithmetic" k2="-1" k3="1" />
      <feColorMatrix type="matrix" values="0 0 0 0 0 0 0 0 0 0 0 0 0 0 0 0 0 0 0.25 0" />
      <feBlend mode="normal" in2="shape" result="effect1_innerShadow_1417_7068" />
    </filter>
    <filter id="filter3_i_1417_7068" x="81.8025" y="52.8639" width="12.4753" height="15.9175"
      filterUnits="userSpaceOnUse" color-interpolation-filters="sRGB">
      <feFlood flood-opacity="0" result="BackgroundImageFix" />
      <feBlend mode="normal" in="SourceGraphic" in2="BackgroundImageFix" result="shape" />
      <feColorMatrix in="SourceAlpha" type="matrix"
        values="0 0 0 0 0 0 0 0 0 0 0 0 0 0 0 0 0 0 127 0" result="hardAlpha" />
      <feOffset dx="1.74163" dy="1.74163" />
      <feComposite in2="hardAlpha" operator="arithmetic" k2="-1" k3="1" />
      <feColorMatrix type="matrix" values="0 0 0 0 0 0 0 0 0 0 0 0 0 0 0 0 0 0 0.25 0" />
      <feBlend mode="normal" in2="shape" result="effect1_innerShadow_1417_7068" />
    </filter>
    <filter id="filter4_i_1417_7068" x="96.6873" y="59.9916" width="7.55322" height="3.60571"
      filterUnits="userSpaceOnUse" color-interpolation-filters="sRGB">
      <feFlood flood-opacity="0" result="BackgroundImageFix" />
      <feBlend mode="normal" in="SourceGraphic" in2="BackgroundImageFix" result="shape" />
      <feColorMatrix in="SourceAlpha" type="matrix"
        values="0 0 0 0 0 0 0 0 0 0 0 0 0 0 0 0 0 0 127 0" result="hardAlpha" />
      <feOffset dx="1.74163" dy="1.74163" />
      <feComposite in2="hardAlpha" operator="arithmetic" k2="-1" k3="1" />
      <feColorMatrix type="matrix" values="0 0 0 0 0 0 0 0 0 0 0 0 0 0 0 0 0 0 0.25 0" />
      <feBlend mode="normal" in2="shape" result="effect1_innerShadow_1417_7068" />
    </filter>
    <filter id="filter5_i_1417_7068" x="55.0713" y="71.3198" width="11.0547" height="15.9175"
      filterUnits="userSpaceOnUse" color-interpolation-filters="sRGB">
      <feFlood flood-opacity="0" result="BackgroundImageFix" />
      <feBlend mode="normal" in="SourceGraphic" in2="BackgroundImageFix" result="shape" />
      <feColorMatrix in="SourceAlpha" type="matrix"
        values="0 0 0 0 0 0 0 0 0 0 0 0 0 0 0 0 0 0 127 0" result="hardAlpha" />
      <feOffset dx="1.74163" dy="1.74163" />
      <feComposite in2="hardAlpha" operator="arithmetic" k2="-1" k3="1" />
      <feColorMatrix type="matrix" values="0 0 0 0 0 0 0 0 0 0 0 0 0 0 0 0 0 0 0.25 0" />
      <feBlend mode="normal" in2="shape" result="effect1_innerShadow_1417_7068" />
    </filter>
    <filter id="filter6_i_1417_7068" x="67.5398" y="71.3198" width="12.6946" height="15.9175"
      filterUnits="userSpaceOnUse" color-interpolation-filters="sRGB">
      <feFlood flood-opacity="0" result="BackgroundImageFix" />
      <feBlend mode="normal" in="SourceGraphic" in2="BackgroundImageFix" result="shape" />
      <feColorMatrix in="SourceAlpha" type="matrix"
        values="0 0 0 0 0 0 0 0 0 0 0 0 0 0 0 0 0 0 127 0" result="hardAlpha" />
      <feOffset dx="1.74163" dy="1.74163" />
      <feComposite in2="hardAlpha" operator="arithmetic" k2="-1" k3="1" />
      <feColorMatrix type="matrix" values="0 0 0 0 0 0 0 0 0 0 0 0 0 0 0 0 0 0 0.25 0" />
      <feBlend mode="normal" in2="shape" result="effect1_innerShadow_1417_7068" />
    </filter>
    <filter id="filter7_i_1417_7068" x="81.1604" y="71.3198" width="12.03" height="15.9175"
      filterUnits="userSpaceOnUse" color-interpolation-filters="sRGB">
      <feFlood flood-opacity="0" result="BackgroundImageFix" />
      <feBlend mode="normal" in="SourceGraphic" in2="BackgroundImageFix" result="shape" />
      <feColorMatrix in="SourceAlpha" type="matrix"
        values="0 0 0 0 0 0 0 0 0 0 0 0 0 0 0 0 0 0 127 0" result="hardAlpha" />
      <feOffset dx="1.74163" dy="1.74163" />
      <feComposite in2="hardAlpha" operator="arithmetic" k2="-1" k3="1" />
      <feColorMatrix type="matrix" values="0 0 0 0 0 0 0 0 0 0 0 0 0 0 0 0 0 0 0.25 0" />
      <feBlend mode="normal" in2="shape" result="effect1_innerShadow_1417_7068" />
    </filter>
    <filter id="filter8_i_1417_7068" x="95.6228" y="71.3198" width="10.4563" height="15.9175"
      filterUnits="userSpaceOnUse" color-interpolation-filters="sRGB">
      <feFlood flood-opacity="0" result="BackgroundImageFix" />
      <feBlend mode="normal" in="SourceGraphic" in2="BackgroundImageFix" result="shape" />
      <feColorMatrix in="SourceAlpha" type="matrix"
        values="0 0 0 0 0 0 0 0 0 0 0 0 0 0 0 0 0 0 127 0" result="hardAlpha" />
      <feOffset dx="1.74163" dy="1.74163" />
      <feComposite in2="hardAlpha" operator="arithmetic" k2="-1" k3="1" />
      <feColorMatrix type="matrix" values="0 0 0 0 0 0 0 0 0 0 0 0 0 0 0 0 0 0 0.25 0" />
      <feBlend mode="normal" in2="shape" result="effect1_innerShadow_1417_7068" />
    </filter>
    <linearGradient id="paint0_linear_1417_7068" x1="112.451" y1="124.383" x2="66.4044" y2="29.1959"
      gradientUnits="userSpaceOnUse">
      <stop stop-color="#E37633" />
      <stop offset="1" stop-color="#FFC06B" />
    </linearGradient>
  </defs>
</svg>
