<svg width="11" height="11" viewBox="0 0 11 11" fill="none" xmlns="http://www.w3.org/2000/svg">
<g id="State=Deactive">
<path id="Icon" d="M4.78979 1.46589C4.88764 1.26766 4.93657 1.16854 5.00298 1.13687C5.06077 1.10932 5.1279 1.10932 5.18569 1.13687C5.25211 1.16854 5.30103 1.26766 5.39888 1.46589L6.32719 3.34653C6.35607 3.40505 6.37052 3.43431 6.39162 3.45703C6.41031 3.47715 6.43273 3.49345 6.45762 3.50502C6.48574 3.5181 6.51803 3.52282 6.58261 3.53226L8.65909 3.83577C8.87775 3.86773 8.98708 3.88371 9.03768 3.93712C9.0817 3.98358 9.10241 4.04743 9.09403 4.11089C9.08439 4.18383 9.00524 4.26092 8.84694 4.41511L7.34494 5.87805C7.29812 5.92366 7.27471 5.94646 7.2596 5.97359C7.24623 5.99761 7.23765 6.024 7.23434 6.0513C7.2306 6.08212 7.23613 6.11433 7.24717 6.17875L7.60158 8.24509C7.63896 8.46303 7.65765 8.57201 7.62252 8.63667C7.59196 8.69293 7.53764 8.7324 7.47469 8.74407C7.40233 8.75748 7.30447 8.70602 7.10876 8.60309L5.25241 7.62686C5.19457 7.59644 5.16566 7.58123 5.13519 7.57526C5.10821 7.56997 5.08046 7.56997 5.05349 7.57526C5.02302 7.58123 4.9941 7.59644 4.93626 7.62686L3.07991 8.60309C2.8842 8.70602 2.78634 8.75748 2.71399 8.74407C2.65103 8.7324 2.59671 8.69293 2.56615 8.63667C2.53103 8.57201 2.54972 8.46303 2.5871 8.24509L2.9415 6.17875C2.95255 6.11433 2.95807 6.08212 2.95433 6.0513C2.95102 6.024 2.94244 5.99761 2.92907 5.97359C2.91396 5.94646 2.89055 5.92366 2.84373 5.87805L1.34174 4.41511C1.18343 4.26092 1.10428 4.18383 1.09465 4.11089C1.08627 4.04743 1.10697 3.98358 1.15099 3.93712C1.20159 3.88371 1.31092 3.86773 1.52958 3.83577L3.60607 3.53226C3.67064 3.52282 3.70293 3.5181 3.73105 3.50502C3.75595 3.49345 3.77836 3.47715 3.79705 3.45703C3.81816 3.43431 3.8326 3.40505 3.86149 3.34653L4.78979 1.46589Z" fill="#675959" stroke="#675959" stroke-width="1.13208" stroke-linecap="round" stroke-linejoin="round"/>
</g>
</svg>
