<svg width="38" height="34" viewBox="0 0 38 34" fill="currentColor" xmlns="http://www.w3.org/2000/svg">
  <path
    d="M5.75373 25C4.30387 25 3.06148 23.9631 2.80212 22.5367L0.334506 8.96478C-0.178616 6.14261 3.18166 4.27878 5.30413 6.2083L8.38291 9.00719C9.79491 10.2908 12.0307 9.9473 12.9923 8.29898L16.4087 2.44229C17.5663 0.457777 20.4337 0.457775 21.5913 2.44229L25.0077 8.29898C25.9693 9.9473 28.2051 10.2908 29.6171 9.00719L32.6959 6.2083C34.8183 4.27878 38.1786 6.14261 37.6655 8.96478L35.1979 22.5367C34.9385 23.9631 33.6961 25 32.2463 25H5.75373ZM34.75 31.75C34.75 33.1 33.85 34 32.5 34H5.5C4.15 34 3.25 33.1 3.25 31.75C3.25 30.5074 4.25736 29.5 5.5 29.5H32.5C33.7426 29.5 34.75 30.5074 34.75 31.75Z" />
</svg>
