<svg viewBox="0 0 161 160" fill="none" xmlns="http://www.w3.org/2000/svg">
  <path
    d="M57.0137 118.672C62.4355 121.821 65.6173 127.348 66.0061 133.167C66.4524 126.499 63.1834 119.837 57.0137 116.253C51.2564 112.909 44.4221 113.087 39.0078 116.125L40.53 117.781C45.6656 115.503 51.784 115.634 57.0137 118.672Z"
    fill="#D06B0E" />
  <path
    d="M37.2725 89.1121C42.305 80.4481 39.3611 69.3449 30.6971 64.3124C29.869 63.8314 29.0186 63.4233 28.1534 63.0861L28.048 63.4059C34.5627 66.1993 39.1033 72.6948 39.0451 80.2271C38.9879 87.6414 34.4908 93.9825 28.0961 96.7472L28.1489 96.9135C31.8568 95.4772 35.12 92.8179 37.2725 89.1121Z"
    fill="#FBC68C" />
  <path
    d="M56.0607 43.5334C62.1109 40.0785 65.4171 33.6679 65.1993 27.1572L65.9905 26.9403C66.2694 30.4864 65.5108 34.1506 63.5891 37.4591C58.57 46.1 47.5127 49.0513 38.8589 44.0747L38.9236 43.9942C44.1677 46.6209 50.5855 46.6599 56.0607 43.5334Z"
    fill="#FBC68C" />
  <path
    d="M123.258 70.888C118.226 79.552 121.17 90.6552 129.834 95.6877C130.795 96.2463 131.787 96.7066 132.797 97.0717L132.856 96.8993C127.764 93.6865 124.382 88.0108 124.382 81.545C124.382 74.7574 128.109 68.8404 133.629 65.7294L132.786 62.9354C128.912 64.3317 125.489 67.048 123.258 70.888Z"
    fill="#D06B0E" />
  <path
    d="M97.2487 123.232C95.4399 126.346 94.6616 129.775 94.8088 133.124L95.1618 133.024C95.5927 127.258 98.7666 121.795 104.144 118.672C109.335 115.657 115.402 115.505 120.514 117.731L121.686 116.451C113.077 111.707 102.211 114.688 97.2487 123.232Z"
    fill="#D06B0E" />
  <path
    d="M104.97 43.4961C109.671 46.2728 115.113 46.6869 119.917 45.0933C114.864 47.1953 108.922 46.9956 103.824 44.0347C97.5796 40.4075 94.3065 33.6269 94.8496 26.8788L96.0642 27.2229C95.8384 33.6495 99.0442 39.9953 104.97 43.4961Z"
    fill="#FCC98E" />
  <path fill-rule="evenodd" clip-rule="evenodd"
    d="M38.8549 44.0727C34.1093 49.5686 30.4333 56.0138 28.1501 63.085C29.0165 63.4225 29.868 63.8311 30.6971 64.3127C39.3611 69.3452 42.305 80.4483 37.2726 89.1123C35.1201 92.818 31.8572 95.4772 28.1495 96.9135C30.459 104.067 34.1942 110.581 39.0202 116.118C44.4326 113.087 51.2609 112.912 57.0137 116.253C63.1543 119.82 66.4215 126.436 66.0122 133.072C70.6282 134.329 75.4857 135 80.5 135C85.4495 135 90.2463 134.346 94.8087 133.121C94.6621 129.773 95.4406 126.345 97.2487 123.232C102.211 114.688 113.078 111.707 121.687 116.452C126.619 110.884 130.439 104.308 132.799 97.0725C131.788 96.7073 130.796 96.2468 129.834 95.6879C121.17 90.6554 118.226 79.5523 123.258 70.8883C125.491 67.0439 128.92 64.3257 132.8 62.9309C130.505 55.8943 126.829 49.4816 122.093 44.0125C116.638 47.1942 109.675 47.4333 103.824 44.0349C97.5832 40.4098 94.3103 33.6349 94.8487 26.8907C90.2743 25.6578 85.4639 25.0002 80.5 25.0002C75.4777 25.0002 70.6126 25.6734 65.9901 26.9344C66.2704 30.4824 65.512 34.149 63.5892 37.4594C58.5693 46.1016 47.5093 49.0525 38.8549 44.0727ZM76.1212 54.8014C78.0877 51.4663 82.912 51.4663 84.8786 54.8014L101.208 82.4935C102.4 84.5145 102.053 87.0885 100.37 88.7228L84.0407 104.576C82.0684 106.49 78.9313 106.49 76.959 104.576L60.63 88.7228C58.9466 87.0885 58.6004 84.5145 59.7921 82.4935L76.1212 54.8014Z"
    fill="url(#paint0_linear_1389_10063)" />
  <path
    d="M76.1212 54.8012C78.0878 51.4662 82.912 51.4661 84.8786 54.8012L101.208 82.4933C102.264 84.2848 102.112 86.5109 100.891 88.1318C101.169 86.761 100.879 85.29 99.9929 84.0949L84.5993 63.3294C82.5623 60.5816 78.4477 60.5892 76.4209 63.3444L61.1438 84.1122C60.212 85.3789 59.9471 86.9522 60.3144 88.3873C58.9077 86.7511 58.679 84.381 59.7921 82.4933L76.1212 54.8012Z"
    fill="#FCC98E" />
  <path
    d="M76.1211 56.1877C78.0877 52.8526 82.912 52.8526 84.8786 56.1877L100.831 83.2403C101.801 84.8851 101.742 86.8659 100.826 88.4144C101.206 86.9657 100.94 85.3727 99.9928 84.0949L84.5992 63.3294C82.5623 60.5817 78.4476 60.5892 76.4208 63.3445L61.1438 84.1123C60.1147 85.5112 59.899 87.2842 60.45 88.832C59.2772 87.2349 59.1097 85.037 60.1691 83.2403L76.1211 56.1877Z"
    fill="#D06A0E" />
  <defs>
    <linearGradient id="paint0_linear_1389_10063" x1="116.419" y1="124.566" x2="72.6579" y2="25.0003"
      gradientUnits="userSpaceOnUse">
      <stop stop-color="#E37633" />
      <stop offset="1" stop-color="#FFC06B" />
    </linearGradient>
  </defs>
</svg>
