<svg viewBox="0 0 161 160" fill="none" xmlns="http://www.w3.org/2000/svg">
  <path
    d="M75.8815 53.1473C77.9557 49.6297 83.0441 49.6297 85.1183 53.1473L102.341 82.3552C103.456 84.2448 103.295 86.5927 102.008 88.3022C102.3 86.8565 101.994 85.305 101.06 84.0444L84.8237 62.1423C82.6752 59.2441 78.3353 59.2521 76.1976 62.1581L60.0843 84.0627C59.1015 85.3987 58.8221 87.0581 59.2095 88.5718C57.7258 86.8461 57.4846 84.3462 58.6586 82.3552L75.8815 53.1473Z"
    fill="#AD460C" />
  <path
    d="M75.8815 54.6097C77.9557 51.092 83.0441 51.092 85.1183 54.6096L101.944 83.143C102.967 84.8778 102.905 86.9671 101.938 88.6004C102.339 87.0724 102.059 85.3921 101.06 84.0444L84.8237 62.1423C82.6753 59.2441 78.3354 59.2521 76.1976 62.1582L60.0843 84.0627C58.9989 85.5383 58.7715 87.4083 59.3526 89.0408C58.1156 87.3563 57.9389 85.0381 59.0564 83.143L75.8815 54.6097Z"
    fill="#AD460C" />
  <g filter="url(#filter0_d_1389_10047)">
    <path
      d="M52.174 32.5307C52.5069 31.9603 53.1176 31.6095 53.778 31.6095H107.577C108.241 31.6095 108.854 31.9637 109.186 32.5387L119.456 26.6142L109.186 32.5387L136.029 79.0707C136.36 79.645 136.36 80.3523 136.029 80.9266L109.186 127.461C108.854 128.036 108.241 128.391 107.577 128.391H53.7782C53.1178 128.391 52.507 128.04 52.1742 127.469L25.0222 80.9346C24.6848 80.3563 24.6848 79.6411 25.0222 79.0627L52.174 32.5307Z"
      stroke="#F4F4F4" stroke-width="24.1429" shape-rendering="crispEdges" />
  </g>
  <path fill-rule="evenodd" clip-rule="evenodd"
    d="M107.399 115.125C105.348 118.675 101.558 120.862 97.458 120.862H63.5421C59.4416 120.862 55.6523 118.675 53.601 115.125L36.6261 85.7435C34.573 82.1898 34.573 77.8103 36.6261 74.2566L53.601 44.8756C55.6523 41.325 59.4416 39.1381 63.5421 39.1381H97.458C101.558 39.1381 105.348 41.325 107.399 44.8756L124.374 74.2566C126.427 77.8103 126.427 82.1898 124.374 85.7435L107.399 115.125ZM75.8815 53.9979C77.9557 50.4802 83.0441 50.4802 85.1183 53.9978L102.341 83.2057C103.598 85.3373 103.233 88.0523 101.458 89.776L84.2346 106.496C82.1543 108.516 78.8455 108.516 76.7653 106.496L59.5424 89.776C57.7669 88.0523 57.4017 85.3373 58.6586 83.2057L75.8815 53.9979Z"
    fill="url(#paint0_linear_1389_10047)" />
  <path
    d="M105.991 42.0868C103.913 40.2159 101.187 39.5632 98.3084 39.5632L64.3925 39.9884C60.292 39.9884 56.5028 42.1754 54.4514 45.7259L37.4766 74.2565C35.4234 77.8103 35.8486 81.7645 37.9018 85.3182L54.4514 114.699C54.9578 115.611 55.2284 116.135 55.8596 117.063C54.9776 116.269 54.2122 115.332 53.601 114.274L36.6261 84.893C34.573 81.3393 34.573 76.9598 36.6261 73.4061L53.601 44.025C55.6523 40.4745 59.4416 38.2875 63.5421 38.2875H97.458C100.748 38.2875 103.838 39.6958 105.991 42.0868Z"
    fill="#E16117" />
  <defs>
    <filter id="filter0_d_1389_10047" x="12.6977" y="19.5381" width="138.437" height="123.71"
      filterUnits="userSpaceOnUse" color-interpolation-filters="sRGB">
      <feFlood flood-opacity="0" result="BackgroundImageFix" />
      <feColorMatrix in="SourceAlpha" type="matrix" values="0 0 0 0 0 0 0 0 0 0 0 0 0 0 0 0 0 0 127 0"
        result="hardAlpha" />
      <feOffset dx="2.78571" dy="2.78571" />
      <feComposite in2="hardAlpha" operator="out" />
      <feColorMatrix type="matrix" values="0 0 0 0 0.579167 0 0 0 0 0.579167 0 0 0 0 0.579167 0 0 0 0.25 0" />
      <feBlend mode="normal" in2="BackgroundImageFix" result="effect1_dropShadow_1389_10047" />
      <feBlend mode="normal" in="SourceGraphic" in2="effect1_dropShadow_1389_10047" result="shape" />
    </filter>
    <linearGradient id="paint0_linear_1389_10047" x1="110.159" y1="113.11" x2="79.9746" y2="36.7851"
      gradientUnits="userSpaceOnUse">
      <stop stop-color="#E37633" />
      <stop offset="1" stop-color="#FFC06B" />
    </linearGradient>
  </defs>
</svg>
