<svg width="300" height="300" viewBox="0 0 300 300" fill="none" xmlns="http://www.w3.org/2000/svg">
  <circle cx="150.646" cy="150.849" r="92.989" stroke="#40444A" stroke-width="12.7306" />
  <path
    d="M151.384 80.0928C196.066 80.0928 232.288 116.373 232.288 161.128C232.288 198.701 206.758 230.301 172.125 239.475C173.901 238.24 174.336 236.211 174.336 232.881C174.336 229.973 174.444 220.709 174.444 209.184C174.444 201.106 171.755 195.936 168.637 193.243C187.778 191.089 207.887 183.765 207.887 150.698C207.887 141.219 205.973 132.15 200.489 126.118C201.349 123.964 202.941 116.553 198.209 104.705C198.184 104.697 190.976 102.355 174.551 113.538C167.669 111.599 160.356 110.629 153.044 110.629C145.732 110.629 136.527 111.599 129.645 113.538C113.224 102.466 107.9 104.696 107.879 104.705C103.147 116.553 107.019 123.964 107.879 126.118C102.395 132.15 98.2007 141.327 98.2007 150.698C98.2007 183.657 116.601 189.136 135.612 191.698C132.543 198.102 132.612 199.167 131.859 204.768C126.913 207.03 114.546 210.692 106.803 197.659C105.19 195.074 100.351 188.719 93.5766 188.827C86.3718 188.935 90.5656 191.107 93.5766 192.722C97.2328 194.769 101.534 204.23 102.502 206.707C104.223 211.554 106.803 219.962 131.435 215.265V239.687C131.435 239.687 70.4797 205.883 70.4797 161.128C70.4797 116.373 106.702 80.0928 151.384 80.0928Z"
    fill="#AD460C" />
  <path
    d="M238.653 158.427C238.653 112.694 195.002 63.5801 149.254 63.5801C103.506 63.5801 61.5313 112.694 61.5313 158.427C62.2194 192.565 83.3418 219.306 128.824 235.386V215.348C106.694 219.42 100.968 209.955 99.2067 205.002C98.2158 202.47 93.9219 194.656 90.1785 192.565C87.0957 190.914 82.6917 186.841 90.0683 186.731C97.0046 186.621 101.959 193.115 103.611 195.757C111.538 209.074 124.199 205.332 129.264 203.021C130.035 197.298 132.347 193.445 134.879 191.244C115.281 189.043 94.8028 181.448 94.8028 147.769C94.8028 138.193 98.2158 130.268 103.831 124.105C102.95 121.903 99.8674 112.878 104.712 100.771C104.717 100.769 112.095 98.4642 128.934 109.796C135.98 107.815 143.467 106.825 150.954 106.825C158.441 106.825 165.928 107.815 172.974 109.796C189.798 98.3646 197.177 100.765 197.196 100.771C202.041 112.878 198.958 121.903 198.077 124.105C203.692 130.268 207.105 138.083 207.105 147.769C207.105 181.558 186.517 189.043 166.919 191.244C170.112 193.995 172.864 199.279 172.864 207.533C172.864 219.31 172.754 228.776 172.754 231.748C172.754 235.151 172.308 237.225 170.49 238.487C205.949 229.112 238.653 196.821 238.653 158.427Z"
    fill="url(#paint0_linear_5448_264)" />
  <path
    d="M153.604 68.2852C200.895 68.2854 238.561 106.905 238.561 154.334C238.561 201.712 200.946 239.134 153.604 239.134C106.241 239.134 67.8967 201.442 67.8967 154.084C67.8968 106.696 106.272 68.2852 153.604 68.2852Z"
    stroke="#E16117" stroke-width="5.53506" />
  <circle cx="149.354" cy="149.374" r="90.1292" stroke="#D9D9D9" stroke-width="18.4502" />
  <defs>
    <linearGradient id="paint0_linear_5448_264" x1="207.93" y1="221.895" x2="138.939" y2="62.9403"
      gradientUnits="userSpaceOnUse">
      <stop stop-color="#E37633" />
      <stop offset="1" stop-color="#FFC06B" />
    </linearGradient>
  </defs>
</svg>
