<svg viewBox="0 0 24 24" fill="none" xmlns="http://www.w3.org/2000/svg">
<path d="M10.5 12.7503C10.8221 13.1809 11.233 13.5372 11.7049 13.795C12.1768 14.0528 12.6986 14.2061 13.235 14.2445C13.7713 14.2829 14.3097 14.2056 14.8135 14.0176C15.3173 13.8297 15.7748 13.5356 16.155 13.1553L18.405 10.9053C19.0881 10.198 19.4661 9.25076 19.4575 8.26752C19.449 7.28429 19.0546 6.34374 18.3593 5.64846C17.664 4.95318 16.7235 4.5588 15.7403 4.55025C14.757 4.54171 13.8098 4.91969 13.1025 5.60278L11.8125 6.88528"  stroke-width="2" stroke-linecap="round" stroke-linejoin="round"/>
<path d="M13.5001 11.2497C13.1781 10.8191 12.7671 10.4629 12.2952 10.205C11.8233 9.94722 11.3015 9.7939 10.7652 9.75549C10.2288 9.71708 9.69046 9.79447 9.18664 9.98241C8.68282 10.1703 8.22531 10.4644 7.84515 10.8447L5.59515 13.0947C4.91206 13.802 4.53408 14.7493 4.54262 15.7325C4.55117 16.7157 4.94555 17.6563 5.64083 18.3516C6.33611 19.0468 7.27666 19.4412 8.2599 19.4498C9.24313 19.4583 10.1904 19.0803 10.8976 18.3972L12.1801 17.1147" stroke-width="2" stroke-linecap="round" stroke-linejoin="round"/>
</svg>
