<svg viewBox="0 0 24 24" fill="none" xmlns="http://www.w3.org/2000/svg">
<path d="M15.375 10.0509L8.625 6.15845" stroke-width="2" stroke-linecap="round" stroke-linejoin="round"/>
<path d="M18.75 15.0002V9.00017C18.7497 8.73713 18.6803 8.47878 18.5487 8.25104C18.417 8.02331 18.2278 7.83419 18 7.70267L12.75 4.70267C12.522 4.57102 12.2633 4.50171 12 4.50171C11.7367 4.50171 11.478 4.57102 11.25 4.70267L6 7.70267C5.7722 7.83419 5.58299 8.02331 5.45135 8.25104C5.31971 8.47878 5.25027 8.73713 5.25 9.00017V15.0002C5.25027 15.2632 5.31971 15.5216 5.45135 15.7493C5.58299 15.977 5.7722 16.1661 6 16.2977L11.25 19.2977C11.478 19.4293 11.7367 19.4986 12 19.4986C12.2633 19.4986 12.522 19.4293 12.75 19.2977L18 16.2977C18.2278 16.1661 18.417 15.977 18.5487 15.7493C18.6803 15.5216 18.7497 15.2632 18.75 15.0002Z" stroke-width="2" stroke-linecap="round" stroke-linejoin="round"/>
<path d="M5.45264 8.22095L12.0001 12.0084L18.5476 8.22095" stroke-width="2" stroke-linecap="round" stroke-linejoin="round"/>
<path d="M12 19.5602V12.0002" stroke-width="2" stroke-linecap="round" stroke-linejoin="round"/>
</svg>
