<svg width="659" height="544" viewBox="0 0 659 544" fill="none" xmlns="http://www.w3.org/2000/svg">
  <g stroke="#65666C" stroke-width="3" stroke-miterlimit="10" stroke-linecap="round">
    <path d="M521.346 189.895L514.798 210.064" />
    <path d="M508.617 196.908L527.526 203.047" />
    <path d="M151.993 175.705L157.11 196.284" />
    <path d="M144.905 188.395L164.197 183.597" />
    <path d="M316.434 77.4219L323.839 97.2919" />
    <path d="M310.822 90.8281L329.45 83.8857" />
    <path d="M201.417 427.137L199.924 448.29" />
    <path d="M210.586 438.413L190.755 437.014" />
    <path d="M432.174 324.521V335.831" />
    <path d="M426.872 330.176H437.475" />
    <path d="M489.556 243.766V252.125" />
    <path d="M485.637 247.945H493.474" />
  </g>
  <g stroke="#65666C" stroke-miterlimit="10" stroke-linecap="round">
    <path d="M231.469 235.178V243.203" stroke-width="2.88" />
    <path d="M227.708 239.191H235.231" stroke-width="2.88" />
    <path d="M244.033 492.209V499.231" stroke-width="2.52" />
    <path d="M247.324 495.721H240.741" stroke-width="2.52" />
    <path d="M186.36 352.473V357.822" stroke-width="1.9185" />
    <path d="M188.863 355.146H183.855" stroke-width="1.9185" />
    <path d="M480.297 353.643V356.652" stroke-width="1.0785" />
    <path d="M481.704 355.146H478.891" stroke-width="1.0785" />
  </g>
  <g stroke="#65666C">
    <path
      d="M588.978 206.621C593.37 206.621 596.93 203.061 596.93 198.669C596.93 194.277 593.37 190.717 588.978 190.717C584.587 190.717 581.026 194.277 581.026 198.669C581.026 203.061 584.587 206.621 588.978 206.621Z"
      stroke-width="3" stroke-miterlimit="10" stroke-linecap="round" />
    <path
      d="M450.067 270.902C454.459 270.902 458.019 267.342 458.019 262.95C458.019 258.558 454.459 254.998 450.067 254.998C445.675 254.998 442.115 258.558 442.115 262.95C442.115 267.342 445.675 270.902 450.067 270.902Z"
      stroke-width="3" stroke-miterlimit="10" stroke-linecap="round" />
    <path
      d="M168.304 304.396C172.696 304.396 176.256 300.836 176.256 296.444C176.256 292.052 172.696 288.492 168.304 288.492C163.912 288.492 160.352 292.052 160.352 296.444C160.352 300.836 163.912 304.396 168.304 304.396Z"
      stroke-width="3" stroke-miterlimit="10" stroke-linecap="round" />
    <path
      d="M429.523 151.828C433.915 151.828 437.475 148.268 437.475 143.876C437.475 139.484 433.915 135.924 429.523 135.924C425.132 135.924 421.571 139.484 421.571 143.876C421.571 148.268 425.132 151.828 429.523 151.828Z"
      stroke-width="3" stroke-miterlimit="10" stroke-linecap="round" />
    <path
      d="M200.671 126.957C205.063 126.957 208.623 123.397 208.623 119.005C208.623 114.613 205.063 111.053 200.671 111.053C196.279 111.053 192.719 114.613 192.719 119.005C192.719 123.397 196.279 126.957 200.671 126.957Z"
      stroke-width="3" stroke-miterlimit="10" stroke-linecap="round" />
    <path
      d="M133.344 427.658C137.736 427.658 141.296 424.098 141.296 419.706C141.296 415.314 137.736 411.754 133.344 411.754C128.952 411.754 125.392 415.314 125.392 419.706C125.392 424.098 128.952 427.658 133.344 427.658Z"
      stroke-width="3" stroke-miterlimit="10" stroke-linecap="round" />
    <path
      d="M283.522 518.677C287.914 518.677 291.474 515.117 291.474 510.725C291.474 506.334 287.914 502.773 283.522 502.773C279.131 502.773 275.57 506.334 275.57 510.725C275.57 515.117 279.131 518.677 283.522 518.677Z"
      stroke-width="3" stroke-miterlimit="10" stroke-linecap="round" />
    <path
      d="M413.619 433.031C418.011 433.031 421.571 429.471 421.571 425.079C421.571 420.687 418.011 417.127 413.619 417.127C409.227 417.127 405.667 420.687 405.667 425.079C405.667 429.471 409.227 433.031 413.619 433.031Z"
      stroke-width="3" stroke-miterlimit="10" stroke-linecap="round" />
  </g>
  <g fill="#65666C">
    <path
      d="M549.88 240.435C551.344 240.435 552.531 239.248 552.531 237.784C552.531 236.32 551.344 235.133 549.88 235.133C548.416 235.133 547.229 236.32 547.229 237.784C547.229 239.248 548.416 240.435 549.88 240.435Z" />
    <path
      d="M253.291 173.273C254.755 173.273 255.942 172.086 255.942 170.622C255.942 169.158 254.755 167.971 253.291 167.971C251.827 167.971 250.64 169.158 250.64 170.622C250.64 172.086 251.827 173.273 253.291 173.273Z" />
    <path
      d="M434.825 207.964C436.289 207.964 437.476 206.777 437.476 205.313C437.476 203.849 436.289 202.662 434.825 202.662C433.361 202.662 432.174 203.849 432.174 205.313C432.174 206.777 433.361 207.964 434.825 207.964Z" />
    <path
      d="M183.709 488.208C185.173 488.208 186.36 487.021 186.36 485.557C186.36 484.093 185.173 482.906 183.709 482.906C182.245 482.906 181.058 484.093 181.058 485.557C181.058 487.021 182.245 488.208 183.709 488.208Z" />
    <path
      d="M382.516 474.956C383.98 474.956 385.167 473.769 385.167 472.305C385.167 470.841 383.98 469.654 382.516 469.654C381.052 469.654 379.865 470.841 379.865 472.305C379.865 473.769 381.052 474.956 382.516 474.956Z" />
    <path
      d="M130.694 249.64C132.158 249.64 133.345 248.453 133.345 246.989C133.345 245.525 132.158 244.338 130.694 244.338C129.23 244.338 128.043 245.525 128.043 246.989C128.043 248.453 129.23 249.64 130.694 249.64Z" />
    <path
      d="M480.297 421.046C481.761 421.046 482.948 419.859 482.948 418.395C482.948 416.931 481.761 415.744 480.297 415.744C478.833 415.744 477.646 416.931 477.646 418.395C477.646 419.859 478.833 421.046 480.297 421.046Z" />
  </g>
  <g stroke="#65666C" stroke-width="3" stroke-miterlimit="10" stroke-linecap="round" stroke-linejoin="round">
    <path
      d="M256 370.5C256 370.5 216.643 397.872 155.85 395.895C153.571 395.821 150.928 395.598 148.016 395.258C80.067 387.305 14.2429 349.769 -18.1128 289.491C-19.002 287.835 -19.868 286.171 -20.71 284.497C-38.6983 248.78 -57.0146 200.696 -51.4272 165.326" />
    <path
      d="M283.412 286.5C278.473 289.977 274.656 295.114 272.898 301.384L256.539 359.736C253.529 370.47 259.526 381.601 270 385.069L338.5 404.06C348.543 405.324 358.266 399.084 361.081 389.046L377.44 330.693C379.122 324.696 378.655 318.605 376.5 313.24" />
    <path
      d="M323.389 190.605C326.909 190.645 329.796 187.823 329.836 184.303C329.876 180.782 327.054 177.896 323.534 177.856C320.014 177.816 317.127 180.637 317.087 184.158C317.047 187.678 319.868 190.564 323.389 190.605Z" />
    <path
      d="M365 375.5L367.812 380.393C371.592 387.085 380.081 389.447 386.773 385.668C393.465 381.888 395.827 373.4 392.048 366.708L375.686 338" />
    <path
      d="M394.552 371.276C396.88 372.646 398.897 374.615 400.322 377.135C404.646 384.781 401.953 394.484 394.308 398.808C386.662 403.132 376.959 400.439 372.635 392.794C370.915 389.753 369.884 386.944 370.254 383.72" />
    <path
      d="M270.5 310.499L244.03 325.208C237.323 328.961 234.927 337.44 238.68 344.147C242.433 350.854 250.912 353.249 257.619 349.497L259.5 348.5" />
    <path
      d="M240.306 328.182C237.606 328.142 234.86 328.776 232.331 330.187C224.663 334.471 221.919 344.159 226.201 351.828C230.485 359.496 240.173 362.24 247.841 357.958C250.891 356.254 253.232 354.391 254.592 351.444" />
    <path
      d="M311.5 397L295.31 458.429C293.334 465.477 297.446 472.792 304.494 474.769C311.542 476.745 318.857 472.633 320.833 465.585L337.5 403.5" />
    <path d="M300.072 441L325.174 447.655" />
    <path
      d="M296.5 392.5L278.721 453.779C276.744 460.826 269.429 464.938 262.382 462.963C255.334 460.986 251.222 453.671 253.198 446.623L270.5 385.001" />
    <path d="M259.076 428.002L283.998 435.002" />
    <path
      d="M398.264 280.306C407.503 247.357 388.996 213.357 356.928 204.365C324.859 195.373 291.373 214.794 282.134 247.743C272.895 280.692 291.402 314.692 323.47 323.684C355.539 332.676 389.025 313.255 398.264 280.306Z" />
    <path d="M330.361 210.604C322.395 212.143 314.865 215.498 308.335 220.35" />
    <path
      d="M379.386 295.416C378.087 300.053 374.623 303.783 370.077 305.37C360.707 308.641 343.79 312.888 327.74 308.388C311.69 303.888 299.447 291.466 293.142 283.801C290.084 280.082 289.064 275.094 290.364 270.458L298.134 242.747C298.922 239.936 301.37 237.916 304.279 237.687C311.041 237.154 324.83 237.314 346.002 243.25C367.174 249.187 379.036 256.218 384.535 260.188C386.903 261.897 387.943 264.895 387.155 267.706L379.386 295.416Z" />
    <path
      d="M291.997 303.001C289.197 304.806 287.027 307.611 286.08 311.079L273.91 354.763C271.873 362.222 276.269 369.92 283.728 371.957L331.5 385C338.959 387.037 346.657 382.641 348.693 375.182L360.863 331.497C361.709 328.399 361.445 325.259 360.312 322.501" />
  </g>
  <path
    d="M319.134 334.288L303.952 349.89L311.899 362.505L324.925 355.26L319.134 334.288ZM313.328 356.96L309.361 350.402L317.029 342.505L319.957 353.14L313.328 356.96Z"
    fill="#F39F47" />
</svg>
