<svg width="32" height="32" viewBox="0 0 33 32" fill="currentColor" xmlns="http://www.w3.org/2000/svg">
  <path
    d="M16.8529 6C11.1916 6 6.6001 10.5907 6.6001 16.2528C6.6001 20.7828 9.53753 24.6259 13.6122 25.9819C14.1239 26.0767 14.2897 25.7589 14.2897 25.4889V23.5801C11.4377 24.2004 10.8439 22.3703 10.8439 22.3703C10.3774 21.1853 9.70499 20.87 9.70499 20.87C8.77455 20.2335 9.7759 20.2471 9.7759 20.2471C10.8055 20.3189 11.3471 21.304 11.3471 21.304C12.2614 22.871 13.7454 22.4182 14.3307 22.1559C14.4221 21.4937 14.6879 21.0409 14.9818 20.7854C12.7048 20.5248 10.3108 19.6456 10.3108 15.7179C10.3108 14.5978 10.7115 13.6836 11.3668 12.9659C11.2609 12.707 10.9097 11.6638 11.4668 10.2524C11.4668 10.2524 12.328 9.97723 14.2871 11.3033C15.1048 11.076 15.9814 10.9624 16.8529 10.9581C17.7244 10.9624 18.6019 11.076 19.4212 11.3033C21.3787 9.97723 22.2382 10.2524 22.2382 10.2524C22.7961 11.6647 22.445 12.7079 22.339 12.9659C22.9969 13.6836 23.3942 14.5987 23.3942 15.7179C23.3942 19.6559 20.9959 20.5231 18.7129 20.7769C19.0803 21.0947 19.4161 21.7184 19.4161 22.6753V25.4889C19.4161 25.7614 19.5801 26.0818 20.1005 25.981C24.1717 24.6234 27.1057 20.7811 27.1057 16.2528C27.1057 10.5907 22.515 6 16.8529 6Z">
  </path>
</svg>
